<?xml version="1.0" encoding="UTF-8" standalone="no"?>
<svg
   width="1920"
   height="262"
   viewBox="0 0 1920 262"
   fill="none"
   version="1.1"
   id="svg47"
   xml:space="preserve"
   xmlns:xlink="http://www.w3.org/1999/xlink"
   xmlns="http://www.w3.org/2000/svg"
   xmlns:svg="http://www.w3.org/2000/svg"><mask
     id="mask0_157_3523"
     maskUnits="userSpaceOnUse"
     x="1463"
     y="151"
     width="546"
     height="111"><rect
       x="1463.5"
       y="151.5"
       width="545"
       height="110"
       fill="#d9d9d9"
       stroke="url(#paint0_linear_157_3523)"
       id="rect1" /></mask><mask
     id="mask1_157_3523"
     maskUnits="userSpaceOnUse"
     x="-90"
     y="151"
     width="546"
     height="111"><rect
       x="-0.5"
       y="0.5"
       width="545"
       height="110"
       transform="matrix(-1,0,0,1,455,151)"
       fill="#d9d9d9"
       stroke="url(#paint3_linear_157_3523)"
       id="rect4" /></mask><defs
     id="defs47"><linearGradient
       id="linearGradient89"><stop
         style="stop-color:#6e6e6e;stop-opacity:0;"
         offset="0"
         id="stop88" /><stop
         style="stop-color:#6e6e6e;stop-opacity:1;"
         offset="0.82872927"
         id="stop89" /></linearGradient><linearGradient
       id="linearGradient65"><stop
         style="stop-color:#242322;stop-opacity:1;"
         offset="0.1"
         id="stop65" /><stop
         style="stop-color:#322d27;stop-opacity:1;"
         offset="1"
         id="stop66" /></linearGradient><linearGradient
       id="linearGradient57"><stop
         style="stop-color:#a6a6a6;stop-opacity:0;"
         offset="0.37948719"
         id="stop57" /><stop
         style="stop-color:#a6a6a6;stop-opacity:0.50196081;"
         offset="1"
         id="stop58" /></linearGradient><linearGradient
       id="linearGradient55"><stop
         style="stop-color:#a6a6a6;stop-opacity:0;"
         offset="0.19871795"
         id="stop55" /><stop
         style="stop-color:#a6a6a6;stop-opacity:1;"
         offset="1"
         id="stop56" /></linearGradient><linearGradient
       id="paint0_linear_157_3523"
       x1="1736"
       y1="151"
       x2="1736"
       y2="262"
       gradientUnits="userSpaceOnUse"><stop
         stop-color="#6E6E6E"
         id="stop21" /><stop
         offset="1"
         stop-color="#6E6E6E"
         stop-opacity="0"
         id="stop22" /></linearGradient><linearGradient
       id="paint3_linear_157_3523"
       x1="273"
       y1="0"
       x2="273"
       y2="111"
       gradientUnits="userSpaceOnUse"><stop
         stop-color="#6E6E6E"
         id="stop27" /><stop
         offset="1"
         stop-color="#6E6E6E"
         stop-opacity="0"
         id="stop28" /></linearGradient><linearGradient
       xlink:href="#linearGradient57"
       id="linearGradient58"
       x1="-2"
       y1="163"
       x2="390"
       y2="163"
       gradientUnits="userSpaceOnUse" /><linearGradient
       xlink:href="#linearGradient65"
       id="linearGradient66"
       x1="960.5"
       y1="0"
       x2="960.5"
       y2="215"
       gradientUnits="userSpaceOnUse" /><linearGradient
       xlink:href="#linearGradient55"
       id="linearGradient73"
       x1="0"
       y1="142"
       x2="715.50391"
       y2="142"
       gradientUnits="userSpaceOnUse" /><linearGradient
       xlink:href="#linearGradient89"
       id="linearGradient94"
       x1="960.5"
       y1="-2.7755576e-17"
       x2="960.5"
       y2="217"
       gradientUnits="userSpaceOnUse" /><linearGradient
       xlink:href="#linearGradient65"
       id="linearGradient100"
       x1="960.5"
       y1="2"
       x2="960.5"
       y2="217"
       gradientUnits="userSpaceOnUse" /><linearGradient
       xlink:href="#linearGradient89"
       id="linearGradient103"
       x1="960.5"
       y1="2"
       x2="960.5"
       y2="217"
       gradientUnits="userSpaceOnUse" /><filter
       style="color-interpolation-filters:sRGB"
       id="filter120"
       x="-0.1259366"
       y="-0.19954338"
       width="1.2518732"
       height="1.4675799"><feFlood
         result="flood"
         in="SourceGraphic"
         flood-opacity="0.498039"
         flood-color="rgb(0,0,0)"
         id="feFlood119" /><feGaussianBlur
         result="blur"
         in="SourceGraphic"
         stdDeviation="18.000000"
         id="feGaussianBlur119" /><feOffset
         result="offset"
         in="blur"
         dx="0.000000"
         dy="15.000000"
         id="feOffset119" /><feComposite
         result="comp1"
         operator="in"
         in="flood"
         in2="offset"
         id="feComposite119" /><feComposite
         result="comp2"
         operator="atop"
         in="comp1"
         in2="comp1"
         id="feComposite120" /></filter><linearGradient
       xlink:href="#linearGradient57"
       id="linearGradient2"
       gradientUnits="userSpaceOnUse"
       x1="-2"
       y1="163"
       x2="390"
       y2="163" /><linearGradient
       xlink:href="#linearGradient55"
       id="linearGradient3"
       gradientUnits="userSpaceOnUse"
       x1="0"
       y1="142"
       x2="715.50391"
       y2="142" /></defs><g
     id="layer2"
     style="display:inline"><g
       id="g58"><g
         id="g76"><path
           id="rect52"
           style="baseline-shift:baseline;display:inline;overflow:visible;opacity:1;vector-effect:none;fill:url(#linearGradient2);paint-order:stroke markers fill;enable-background:accumulate;stop-color:#000000;stop-opacity:1"
           d="M -2,150.57617 V 186 h 367.01953 l 0.13672,-1.85156 c 0.91785,-12.31295 10.67924,-22.07434 22.99219,-22.99219 L 390,161.01953 v -10.44336 h -4 v 6.90039 C 373.25966,159.267 363.267,169.25966 361.47656,182 H 2 v -31.42383 z" /><path
           style="baseline-shift:baseline;display:inline;overflow:visible;opacity:1;vector-effect:none;fill:url(#linearGradient3);fill-opacity:1;paint-order:stroke markers fill;enable-background:accumulate;stop-color:#000000;stop-opacity:1"
           d="m 0,140 v 4 h 715.50391 v -4 z"
           id="path71" /><path
           id="rect1-0"
           style="display:inline;opacity:1;fill:#a6a6a6;fill-opacity:1;stroke:none;stroke-width:1.587;stroke-linecap:round;stroke-dasharray:0, 10.1568;stroke-dashoffset:0"
           d="m 4.209495,-4.209495 v 8.41899 h 8.41899 v -8.41899 z m 0.9361742,0.9361741 H 11.692311 V 3.2733209 H 5.1456692 Z m 1.4959785,1.4959786 v 3.5546846 h 3.5546843 v -3.5546846 z"
           transform="matrix(2.6725296,2.6725296,-2.6725296,2.6725296,710.5,119.5)" /></g><g
         id="g75"
         transform="matrix(-1,0,0,1,1920,0)"
         style="display:inline"><path
           id="path75"
           d="M -2,150.57617 V 186 h 367.01953 l 0.13672,-1.85156 c 0.91785,-12.31295 10.67924,-22.07434 22.99219,-22.99219 L 390,161.01953 v -10.44336 h -4 v 6.90039 C 373.25966,159.267 363.267,169.25966 361.47656,182 H 2 v -31.42383 z"
           style="baseline-shift:baseline;display:inline;overflow:visible;opacity:1;vector-effect:none;fill:url(#linearGradient58);paint-order:stroke markers fill;enable-background:accumulate;stop-color:#000000;stop-opacity:1" /><path
           id="path74"
           d="m 0,140 v 4 h 715.50391 v -4 z"
           style="baseline-shift:baseline;display:inline;overflow:visible;opacity:1;vector-effect:none;fill:url(#linearGradient73);fill-opacity:1;paint-order:stroke markers fill;enable-background:accumulate;stop-color:#000000;stop-opacity:1" /><path
           transform="matrix(2.6725296,2.6725296,-2.6725296,2.6725296,710.5,119.5)"
           id="path73"
           d="m 4.209495,-4.209495 v 8.41899 h 8.41899 v -8.41899 z m 0.9361742,0.9361741 H 11.692311 V 3.2733209 H 5.1456692 Z m 1.4959785,1.4959786 v 3.5546846 h 3.5546843 v -3.5546846 z"
           style="display:inline;opacity:1;fill:#a6a6a6;fill-opacity:1;stroke:none;stroke-width:1.587;stroke-linecap:round;stroke-dasharray:0, 10.1568;stroke-dashoffset:0" /></g></g><g
       id="g83"><path
         id="path104"
         style="baseline-shift:baseline;display:inline;overflow:visible;opacity:1;vector-effect:none;fill:#000000;fill-opacity:1;stroke:#000000;stroke-opacity:1;paint-order:stroke markers fill;filter:url(#filter120);enable-background:accumulate;stop-color:#000000;stop-opacity:1"
         d="m 787,-2 v 175.75977 l 1.9043,0.0898 c 22.24932,1.05645 40.05885,18.94736 40.98242,41.23242 L 829.9668,217 h 260.0664 l 0.08,-1.91797 c 0.9368,-22.60341 19.2406,-40.68712 41.9375,-41.26758 L 1134,173.76367 V -2 Z m 340.7637,184.81836 -3.8789,1.1875 c -11.3748,3.48328 -20.2355,12.66853 -23.2637,24.23437 L 1099.6367,212 h 28.127 z m -334.52737,0.17773 V 212 h 27.12695 l -0.98437,-3.75977 c -2.92975,-11.19178 -11.3212,-20.15382 -22.16797,-23.8789 z" /><path
         style="baseline-shift:baseline;display:inline;overflow:visible;opacity:1;vector-effect:none;fill:url(#linearGradient103);stroke:none;paint-order:stroke markers fill;enable-background:accumulate;stop-color:#000000;stop-opacity:1"
         d="m 1127.7637,182.81836 -3.8789,1.1875 c -11.3748,3.48328 -20.2355,12.66853 -23.2637,24.23437 L 1099.6367,212 h 28.127 z m -334.52737,0.17773 V 212 h 27.12695 l -0.98437,-3.75977 c -2.92975,-11.19178 -11.3212,-20.15382 -22.16797,-23.8789 z m 328.52737,8.50782 V 206 h -13.8125 c 2.707,-6.38758 7.5852,-11.49679 13.8125,-14.49609 z m -322.52737,0.47656 c 5.76587,3.06065 10.27088,7.97029 12.83203,14.01953 h -12.83203 z"
         id="path98" /><path
         style="baseline-shift:baseline;display:inline;overflow:visible;opacity:1;vector-effect:none;fill:url(#linearGradient100);paint-order:stroke markers fill;enable-background:accumulate;stop-color:#000000;stop-opacity:1"
         d="m 1124.7637,186.875 c -10.3786,3.17823 -18.4777,11.57166 -21.2403,22.125 h 21.2403 z m -328.52737,0.32422 V 209 h 20.24023 c -2.67324,-10.21192 -10.3433,-18.4019 -20.24023,-21.80078 z"
         id="path99" /><path
         id="path64"
         style="display:inline;opacity:1;fill:url(#linearGradient66);stroke:none;stroke-width:4;stroke-opacity:1;paint-order:stroke markers fill"
         d="m 789,0 v 171.85156 c 23.26887,1.10486 41.91893,19.84343 42.88477,43.14844 h 256.23043 c 0.9797,-23.63793 20.1524,-42.57861 43.8848,-43.18555 V 0 Z" /><path
         style="baseline-shift:baseline;display:inline;overflow:visible;opacity:1;vector-effect:none;fill:url(#linearGradient94);fill-opacity:1;stroke:none;stroke-opacity:1;paint-order:stroke markers fill;enable-background:accumulate;stop-color:#000000;stop-opacity:1"
         d="m 787,-2 v 175.75977 l 1.9043,0.0898 c 22.24932,1.05645 40.05885,18.94736 40.98242,41.23242 L 829.9668,217 h 260.0664 l 0.08,-1.91797 c 0.9368,-22.60341 19.2406,-40.68712 41.9375,-41.26758 L 1134,173.76367 V -2 Z m 4,4 h 339 v 168.05273 c -23.1893,1.5673 -41.6997,19.85293 -43.6172,42.94727 H 833.61914 C 831.72978,190.238 813.72589,172.14622 791,170.12695 Z"
         id="rect63" /></g></g></svg>
