<?xml version="1.0" encoding="UTF-8" standalone="no"?>
<!-- Created with Inkscape (http://www.inkscape.org/) -->

<svg
   width="1680"
   height="1680"
   viewBox="0 0 444.49995 444.49995"
   version="1.1"
   id="svg1"
   xml:space="preserve"
   xmlns:xlink="http://www.w3.org/1999/xlink"
   xmlns="http://www.w3.org/2000/svg"
   xmlns:svg="http://www.w3.org/2000/svg"><defs
     id="defs1"><linearGradient
       id="linearGradient5"><stop
         style="stop-color:#43403d;stop-opacity:0;"
         offset="0.81265205"
         id="stop676" /><stop
         style="stop-color:#43403d;stop-opacity:0.30000001;"
         offset="0.99542332"
         id="stop677" /><stop
         style="stop-color:#43403d;stop-opacity:0;"
         offset="1"
         id="stop678" /></linearGradient><linearGradient
       id="linearGradient454"><stop
         style="stop-color:#43403d;stop-opacity:0;"
         offset="0"
         id="stop673" /><stop
         style="stop-color:#43403d;stop-opacity:0.30000001;"
         offset="0.99542332"
         id="stop674" /><stop
         style="stop-color:#43403d;stop-opacity:0;"
         offset="1"
         id="stop675" /></linearGradient><radialGradient
       xlink:href="#linearGradient5"
       id="radialGradient6"
       cx="219.86874"
       cy="219.86874"
       fx="219.86874"
       fy="219.86874"
       r="187.85417"
       gradientUnits="userSpaceOnUse" /><radialGradient
       xlink:href="#linearGradient454"
       id="radialGradient449"
       gradientUnits="userSpaceOnUse"
       cx="219.86874"
       cy="219.86874"
       fx="219.86874"
       fy="219.86874"
       r="187.85417"
       gradientTransform="matrix(0.80000002,0,0,0.80000002,43.973745,43.973745)" /></defs><g
     id="g779"
     style="display:inline"><g
       id="g753"
       transform="translate(2.3812536,2.3812536)"
       style="display:inline;opacity:1"><g
         id="g746"
         style="display:inline"><path
           id="path745"
           style="display:inline;fill:url(#radialGradient6);stroke-width:1.5875;stroke-linecap:round;stroke-dasharray:0, 12.7"
           d="M 407.72292,219.86874 A 187.85417,187.85417 0 0 1 219.86874,407.72292 187.85417,187.85417 0 0 1 32.014572,219.86874 187.85417,187.85417 0 0 1 219.86874,32.014572 187.85417,187.85417 0 0 1 407.72292,219.86874 Z" /><path
           id="path746"
           d="m 410.89596,222.25 c 0,0.43728 -0.35449,0.79177 -0.79177,0.79177 -0.43729,0 -0.79177,-0.35449 -0.79177,-0.79177 0,-0.43728 0.35448,-0.79177 0.79177,-0.79177 0.43728,0 0.79177,0.35449 0.79177,0.79177 z m -0.40391,-12.33804 c 0.0286,0.43635 -0.30194,0.81326 -0.73829,0.84186 -0.43635,0.0286 -0.81326,-0.30194 -0.84186,-0.73829 -0.0286,-0.43634 0.30195,-0.81326 0.73829,-0.84186 0.43635,-0.0286 0.81326,0.30195 0.84186,0.73829 z m -1.20998,-12.2852 c 0.0571,0.43354 -0.24811,0.83127 -0.68165,0.88835 -0.43355,0.0571 -0.83127,-0.24811 -0.88835,-0.68165 -0.0571,-0.43355 0.24811,-0.83127 0.68165,-0.88835 0.43354,-0.0571 0.83127,0.24811 0.88835,0.68165 z M 407.27118,185.447 c 0.0853,0.42888 -0.19321,0.84571 -0.62209,0.93102 -0.42888,0.0853 -0.84572,-0.19321 -0.93103,-0.62209 -0.0853,-0.42888 0.19321,-0.84571 0.62209,-0.93102 0.42889,-0.0853 0.84572,0.19321 0.93103,0.62209 z M 404.468,173.42483 c 0.11318,0.42239 -0.13748,0.85654 -0.55986,0.96972 -0.42239,0.11318 -0.85654,-0.13748 -0.96972,-0.55987 -0.11318,-0.42238 0.13748,-0.85654 0.55987,-0.96971 0.42238,-0.11318 0.85654,0.13748 0.96971,0.55986 z m -3.58346,-11.81309 c 0.14056,0.41408 -0.0812,0.8637 -0.49524,1.00426 -0.41408,0.14056 -0.8637,-0.0812 -1.00426,-0.49524 -0.14056,-0.41408 0.0812,-0.8637 0.49524,-1.00426 0.41408,-0.14056 0.8637,0.0812 1.00426,0.49524 z m -4.3484,-11.55342 c 0.16734,0.40399 -0.0245,0.86716 -0.4285,1.0345 -0.404,0.16734 -0.86716,-0.0245 -1.0345,-0.42851 -0.16734,-0.40399 0.0245,-0.86716 0.4285,-1.0345 0.404,-0.16734 0.86716,0.0245 1.0345,0.42851 z m -5.09472,-11.24429 c 0.1934,0.39218 0.0323,0.8669 -0.35993,1.06031 -0.39219,0.1934 -0.8669,0.0323 -1.06031,-0.35993 -0.1934,-0.39219 -0.0323,-0.86691 0.35993,-1.06031 0.39219,-0.19341 0.8669,-0.0323 1.06031,0.35993 z m -5.81923,-10.88701 c 0.21864,0.3787 0.0889,0.86294 -0.28981,1.08158 -0.37869,0.21864 -0.86293,0.0889 -1.08158,-0.28981 -0.21864,-0.3787 -0.0889,-0.86294 0.28981,-1.08158 0.3787,-0.21864 0.86294,-0.0889 1.08158,0.28981 z m -6.51881,-10.4831 c 0.24294,0.36359 0.14514,0.85528 -0.21845,1.09822 -0.36359,0.24294 -0.85527,0.14514 -1.09822,-0.21845 -0.24294,-0.36359 -0.14513,-0.85528 0.21845,-1.09822 0.36359,-0.24294 0.85528,-0.14514 1.09822,0.21845 z m -7.19048,-10.0343 c 0.2662,0.34692 0.20077,0.84395 -0.14615,1.11015 -0.34692,0.2662 -0.84396,0.20077 -1.11016,-0.14615 -0.2662,-0.34692 -0.20076,-0.84396 0.14616,-1.11016 0.34692,-0.2662 0.84395,-0.20076 1.11015,0.14616 z m -7.83136,-9.542543 c 0.28832,0.328767 0.25553,0.829015 -0.0732,1.117336 -0.32877,0.288321 -0.82902,0.255533 -1.11734,-0.07323 -0.28832,-0.328767 -0.25553,-0.829015 0.0732,-1.117336 0.32877,-0.288321 0.82902,-0.255533 1.11734,0.07323 z m -8.4387,-9.009913 c 0.3092,0.309206 0.3092,0.810527 0,1.119733 -0.30921,0.309206 -0.81053,0.309206 -1.11974,0 -0.3092,-0.309206 -0.3092,-0.810527 0,-1.119733 0.30921,-0.309206 0.81053,-0.309206 1.11974,0 z m -9.00992,-8.438705 c 0.32877,0.288321 0.36156,0.788569 0.0732,1.117336 -0.28832,0.328767 -0.78857,0.361555 -1.11734,0.07323 -0.32877,-0.28832 -0.36155,-0.788569 -0.0732,-1.117336 0.28832,-0.328767 0.78857,-0.361555 1.11733,-0.07323 z m -9.54254,-7.83136 c 0.34692,0.266201 0.41236,0.763234 0.14616,1.110154 -0.2662,0.34692 -0.76324,0.412356 -1.11016,0.146155 -0.34692,-0.266201 -0.41235,-0.763235 -0.14615,-1.110155 0.2662,-0.34692 0.76323,-0.412355 1.11015,-0.146154 z m -10.0343,-7.190481 c 0.36359,0.242942 0.46139,0.734631 0.21845,1.098219 -0.24294,0.363587 -0.73463,0.46139 -1.09822,0.218449 -0.36359,-0.242942 -0.46139,-0.734631 -0.21845,-1.098219 0.24294,-0.363587 0.73463,-0.46139 1.09822,-0.218449 z m -10.4831,-6.51881 c 0.3787,0.218641 0.50845,0.702881 0.28981,1.08158 -0.21864,0.378698 -0.70288,0.50845 -1.08158,0.289808 -0.3787,-0.218642 -0.50845,-0.702881 -0.28981,-1.08158 0.21864,-0.378698 0.70288,-0.50845 1.08158,-0.289808 z m -10.88701,-5.819226 c 0.39219,0.193406 0.55334,0.668122 0.35993,1.06031 -0.1934,0.392187 -0.66812,0.553332 -1.06031,0.359926 -0.39219,-0.193405 -0.55333,-0.668122 -0.35993,-1.060309 0.19341,-0.392188 0.66813,-0.553332 1.06031,-0.359927 z M 294.44168,47.96386 c 0.404,0.167341 0.59585,0.630502 0.42851,1.034499 -0.16734,0.403997 -0.63051,0.595845 -1.0345,0.428504 -0.404,-0.167341 -0.59585,-0.630502 -0.42851,-1.034499 0.16734,-0.403997 0.63051,-0.595845 1.0345,-0.428504 z m -11.55342,-4.348402 c 0.41407,0.14056 0.6358,0.590182 0.49524,1.004259 -0.14056,0.414077 -0.59018,0.635806 -1.00426,0.495246 -0.41407,-0.140561 -0.6358,-0.590183 -0.49524,-1.004259 0.14056,-0.414077 0.59018,-0.635806 1.00426,-0.495246 z m -11.81309,-3.583461 c 0.42238,0.113177 0.67304,0.547334 0.55986,0.969718 -0.11317,0.422383 -0.54733,0.673044 -0.96971,0.559867 -0.42239,-0.113178 -0.67305,-0.547335 -0.55987,-0.969718 0.11318,-0.422384 0.54733,-0.673045 0.96972,-0.559867 z M 259.053,37.228821 c 0.42888,0.08531 0.7074,0.502143 0.62209,0.931024 -0.0853,0.428881 -0.50214,0.707401 -0.93102,0.622091 -0.42888,-0.08531 -0.7074,-0.502143 -0.62209,-0.931024 0.0853,-0.428881 0.50214,-0.707401 0.93102,-0.622091 z m -12.17976,-2.010887 c 0.43354,0.05708 0.73873,0.454802 0.68165,0.888345 -0.0571,0.433542 -0.4548,0.738727 -0.88835,0.68165 -0.43354,-0.05708 -0.73872,-0.454802 -0.68165,-0.888344 0.0571,-0.433543 0.45481,-0.738728 0.88835,-0.681651 z m -12.2852,-1.209987 c 0.43634,0.0286 0.76689,0.405514 0.73829,0.841861 -0.0286,0.436347 -0.40552,0.766891 -0.84186,0.738291 -0.43635,-0.0286 -0.76689,-0.405513 -0.73829,-0.84186 0.0286,-0.436347 0.40551,-0.766892 0.84186,-0.738292 z M 222.25,33.604042 c 0.43728,0 0.79177,0.354488 0.79177,0.791771 0,0.437283 -0.35449,0.791771 -0.79177,0.791771 -0.43728,0 -0.79177,-0.354488 -0.79177,-0.791771 0,-0.437283 0.35449,-0.791771 0.79177,-0.791771 z m -12.33804,0.403905 c 0.43635,-0.0286 0.81326,0.301945 0.84186,0.738292 0.0286,0.436347 -0.30194,0.813261 -0.73829,0.84186 -0.43634,0.0286 -0.81326,-0.301944 -0.84186,-0.738291 -0.0286,-0.436347 0.30195,-0.813261 0.73829,-0.841861 z m -12.2852,1.209987 c 0.43354,-0.05708 0.83127,0.248108 0.88835,0.681651 0.0571,0.433542 -0.24811,0.831267 -0.68165,0.888344 -0.43355,0.05708 -0.83127,-0.248108 -0.88835,-0.68165 -0.0571,-0.433543 0.24811,-0.831268 0.68165,-0.888345 z M 185.447,37.228821 c 0.42888,-0.08531 0.84571,0.19321 0.93102,0.622091 0.0853,0.428881 -0.19321,0.845715 -0.62209,0.931024 -0.42888,0.08531 -0.84571,-0.19321 -0.93102,-0.622091 -0.0853,-0.428881 0.19321,-0.845714 0.62209,-0.931024 z m -12.02217,2.803176 c 0.42239,-0.113178 0.85654,0.137483 0.96972,0.559867 0.11318,0.422383 -0.13748,0.85654 -0.55987,0.969718 -0.42238,0.113177 -0.85654,-0.137484 -0.96971,-0.559867 -0.11318,-0.422384 0.13748,-0.856541 0.55986,-0.969718 z m -11.81309,3.583461 c 0.41408,-0.14056 0.8637,0.08117 1.00426,0.495246 0.14056,0.414076 -0.0812,0.863698 -0.49524,1.004259 -0.41408,0.14056 -0.8637,-0.08117 -1.00426,-0.495246 -0.14056,-0.414077 0.0812,-0.863699 0.49524,-1.004259 z m -11.55342,4.348402 c 0.40399,-0.167341 0.86716,0.02451 1.0345,0.428504 0.16734,0.403997 -0.0245,0.867158 -0.42851,1.034499 -0.40399,0.167341 -0.86716,-0.02451 -1.0345,-0.428504 -0.16734,-0.403997 0.0245,-0.867158 0.42851,-1.034499 z m -11.24429,5.094722 c 0.39218,-0.193405 0.8669,-0.03226 1.06031,0.359927 0.1934,0.392187 0.0323,0.866904 -0.35993,1.060309 -0.39219,0.193406 -0.86691,0.03226 -1.06031,-0.359926 -0.19341,-0.392188 -0.0323,-0.866904 0.35993,-1.06031 z m -10.88701,5.819226 c 0.3787,-0.218642 0.86294,-0.08889 1.08158,0.289808 0.21864,0.378699 0.0889,0.862938 -0.28981,1.08158 -0.3787,0.218642 -0.86294,0.08889 -1.08158,-0.289808 -0.21864,-0.378699 -0.0889,-0.862939 0.28981,-1.08158 z m -10.4831,6.51881 c 0.36359,-0.242941 0.85528,-0.145138 1.09822,0.218449 0.24294,0.363588 0.14514,0.855277 -0.21845,1.098219 -0.36359,0.242941 -0.85528,0.145138 -1.09822,-0.218449 -0.24294,-0.363588 -0.14514,-0.855277 0.21845,-1.098219 z m -10.0343,7.190481 c 0.34692,-0.266201 0.84395,-0.200766 1.11015,0.146154 0.2662,0.34692 0.20077,0.843954 -0.14615,1.110155 -0.34692,0.266201 -0.84396,0.200765 -1.11016,-0.146155 -0.2662,-0.34692 -0.20076,-0.843953 0.14616,-1.110154 z m -9.542543,7.83136 c 0.328767,-0.288321 0.829015,-0.255533 1.117336,0.07323 0.288321,0.328767 0.255533,0.829016 -0.07323,1.117336 -0.328767,0.288321 -0.829015,0.255533 -1.117336,-0.07323 -0.288321,-0.328767 -0.255533,-0.829015 0.07323,-1.117336 z m -9.009913,8.438705 c 0.309206,-0.309206 0.810527,-0.309206 1.119733,0 0.309206,0.309206 0.309206,0.810527 0,1.119733 -0.309206,0.309206 -0.810527,0.309206 -1.119733,0 -0.309206,-0.309206 -0.309206,-0.810527 0,-1.119733 z m -8.438705,9.009913 c 0.288321,-0.328767 0.788569,-0.361555 1.117336,-0.07323 0.328767,0.288321 0.361555,0.788569 0.07323,1.117336 -0.28832,0.328767 -0.788569,0.361555 -1.117336,0.07323 -0.328767,-0.288321 -0.361555,-0.788569 -0.07323,-1.117336 z m -7.83136,9.542543 c 0.266201,-0.34692 0.763234,-0.41236 1.110154,-0.14616 0.34692,0.2662 0.412356,0.76324 0.146155,1.11016 -0.266201,0.34692 -0.763235,0.41235 -1.110155,0.14615 -0.34692,-0.2662 -0.412355,-0.76323 -0.146154,-1.11015 z m -7.190481,10.0343 c 0.242942,-0.36359 0.734631,-0.46139 1.098219,-0.21845 0.363587,0.24294 0.46139,0.73463 0.218449,1.09822 -0.242942,0.36359 -0.734631,0.46139 -1.098219,0.21845 -0.363587,-0.24294 -0.46139,-0.73463 -0.218449,-1.09822 z m -6.51881,10.4831 c 0.218641,-0.3787 0.702881,-0.50845 1.08158,-0.28981 0.378698,0.21864 0.50845,0.70288 0.289808,1.08158 -0.218642,0.3787 -0.702881,0.50845 -1.08158,0.28981 -0.378698,-0.21864 -0.50845,-0.70288 -0.289808,-1.08158 z m -5.819226,10.88701 c 0.193406,-0.39219 0.668122,-0.55334 1.06031,-0.35993 0.392187,0.1934 0.553332,0.66812 0.359926,1.06031 -0.193405,0.39219 -0.668122,0.55333 -1.060309,0.35993 -0.392188,-0.19341 -0.553332,-0.66813 -0.359927,-1.06031 z m -5.094722,11.24429 c 0.167341,-0.404 0.630502,-0.59585 1.034499,-0.42851 0.403997,0.16734 0.595845,0.63051 0.428504,1.0345 -0.167341,0.404 -0.630502,0.59585 -1.034499,0.42851 -0.403997,-0.16734 -0.595845,-0.63051 -0.428504,-1.0345 z m -4.348402,11.55342 c 0.14056,-0.41407 0.590182,-0.6358 1.004259,-0.49524 0.414077,0.14056 0.635806,0.59018 0.495246,1.00426 -0.140561,0.41407 -0.590183,0.6358 -1.004259,0.49524 -0.414077,-0.14056 -0.635806,-0.59018 -0.495246,-1.00426 z m -3.583461,11.81309 c 0.113177,-0.42238 0.547334,-0.67304 0.969718,-0.55986 0.422383,0.11317 0.673044,0.54733 0.559867,0.96971 -0.113178,0.42239 -0.547335,0.67305 -0.969718,0.55987 -0.422384,-0.11318 -0.673045,-0.54733 -0.559867,-0.96972 z M 37.228821,185.447 c 0.08531,-0.42888 0.502143,-0.7074 0.931024,-0.62209 0.428881,0.0853 0.707401,0.50214 0.622091,0.93102 -0.08531,0.42888 -0.502143,0.7074 -0.931024,0.62209 -0.428881,-0.0853 -0.707401,-0.50214 -0.622091,-0.93102 z m -2.010887,12.17976 c 0.05708,-0.43354 0.454802,-0.73873 0.888345,-0.68165 0.433542,0.0571 0.738727,0.4548 0.68165,0.88835 -0.05708,0.43354 -0.454802,0.73872 -0.888344,0.68165 -0.433543,-0.0571 -0.738728,-0.45481 -0.681651,-0.88835 z m -1.209987,12.2852 c 0.0286,-0.43634 0.405514,-0.76689 0.841861,-0.73829 0.436347,0.0286 0.766891,0.40552 0.738291,0.84186 -0.0286,0.43635 -0.405513,0.76689 -0.84186,0.73829 -0.436347,-0.0286 -0.766892,-0.40551 -0.738292,-0.84186 z M 33.604042,222.25 c 0,-0.43728 0.354488,-0.79177 0.791771,-0.79177 0.437283,0 0.791771,0.35449 0.791771,0.79177 0,0.43728 -0.354488,0.79177 -0.791771,0.79177 -0.437283,0 -0.791771,-0.35449 -0.791771,-0.79177 z m 0.403905,12.33804 c -0.0286,-0.43635 0.301945,-0.81326 0.738292,-0.84186 0.436347,-0.0286 0.813261,0.30194 0.84186,0.73829 0.0286,0.43634 -0.301944,0.81326 -0.738291,0.84186 -0.436347,0.0286 -0.813261,-0.30195 -0.841861,-0.73829 z m 1.209987,12.2852 c -0.05708,-0.43354 0.248108,-0.83127 0.681651,-0.88835 0.433542,-0.0571 0.831267,0.24811 0.888344,0.68165 0.05708,0.43355 -0.248108,0.83127 -0.68165,0.88835 -0.433543,0.0571 -0.831268,-0.24811 -0.888345,-0.68165 z m 2.010887,12.17976 c -0.08531,-0.42888 0.19321,-0.84571 0.622091,-0.93102 0.428881,-0.0853 0.845715,0.19321 0.931024,0.62209 0.08531,0.42888 -0.19321,0.84571 -0.622091,0.93102 -0.428881,0.0853 -0.845714,-0.19321 -0.931024,-0.62209 z m 2.803176,12.02217 c -0.113178,-0.42239 0.137483,-0.85654 0.559867,-0.96972 0.422383,-0.11318 0.85654,0.13748 0.969718,0.55987 0.113177,0.42238 -0.137484,0.85654 -0.559867,0.96971 -0.422384,0.11318 -0.856541,-0.13748 -0.969718,-0.55986 z m 3.583461,11.81309 c -0.14056,-0.41408 0.08117,-0.8637 0.495246,-1.00426 0.414076,-0.14056 0.863698,0.0812 1.004259,0.49524 0.14056,0.41408 -0.08117,0.8637 -0.495246,1.00426 -0.414077,0.14056 -0.863699,-0.0812 -1.004259,-0.49524 z m 4.348402,11.55342 c -0.167341,-0.40399 0.02451,-0.86716 0.428504,-1.0345 0.403997,-0.16734 0.867158,0.0245 1.034499,0.42851 0.167341,0.40399 -0.02451,0.86716 -0.428504,1.0345 -0.403997,0.16734 -0.867158,-0.0245 -1.034499,-0.42851 z m 5.094722,11.24429 c -0.193405,-0.39218 -0.03226,-0.8669 0.359927,-1.06031 0.392187,-0.1934 0.866904,-0.0323 1.060309,0.35993 0.193406,0.39219 0.03226,0.86691 -0.359926,1.06031 -0.392188,0.19341 -0.866904,0.0323 -1.06031,-0.35993 z m 5.819226,10.88701 c -0.218642,-0.3787 -0.08889,-0.86294 0.289808,-1.08158 0.378699,-0.21864 0.862938,-0.0889 1.08158,0.28981 0.218642,0.3787 0.08889,0.86294 -0.289808,1.08158 -0.378699,0.21864 -0.862939,0.0889 -1.08158,-0.28981 z m 6.51881,10.4831 c -0.242941,-0.36359 -0.145138,-0.85528 0.218449,-1.09822 0.363588,-0.24294 0.855277,-0.14514 1.098219,0.21845 0.242941,0.36359 0.145138,0.85528 -0.218449,1.09822 -0.363588,0.24294 -0.855277,0.14514 -1.098219,-0.21845 z m 7.190481,10.0343 c -0.266201,-0.34692 -0.200766,-0.84395 0.146154,-1.11015 0.34692,-0.2662 0.843954,-0.20077 1.110155,0.14615 0.266201,0.34692 0.200765,0.84396 -0.146155,1.11016 -0.34692,0.2662 -0.843953,0.20076 -1.110154,-0.14616 z m 7.83136,9.54254 c -0.288321,-0.32876 -0.255533,-0.82901 0.07323,-1.11733 0.328767,-0.28832 0.829016,-0.25554 1.117336,0.0732 0.288321,0.32877 0.255533,0.82902 -0.07323,1.11734 -0.328767,0.28832 -0.829015,0.25553 -1.117336,-0.0732 z m 8.438705,9.00992 c -0.309206,-0.30921 -0.309206,-0.81053 0,-1.11974 0.309206,-0.3092 0.810527,-0.3092 1.119733,0 0.309206,0.30921 0.309206,0.81053 0,1.11974 -0.309206,0.3092 -0.810527,0.3092 -1.119733,0 z m 9.009913,8.4387 c -0.328767,-0.28832 -0.361555,-0.78857 -0.07323,-1.11734 0.288321,-0.32876 0.788569,-0.36155 1.117336,-0.0732 0.328767,0.28832 0.361555,0.78857 0.07323,1.11734 -0.288321,0.32876 -0.788569,0.36155 -1.117336,0.0732 z m 9.542543,7.83136 c -0.34692,-0.2662 -0.41236,-0.76323 -0.14616,-1.11015 0.2662,-0.34692 0.76324,-0.41236 1.11016,-0.14616 0.34692,0.2662 0.41235,0.76324 0.14615,1.11016 -0.2662,0.34692 -0.76323,0.41235 -1.11015,0.14615 z m 10.0343,7.19048 c -0.36359,-0.24294 -0.46139,-0.73463 -0.21845,-1.09822 0.24294,-0.36358 0.73463,-0.46139 1.09822,-0.21845 0.36359,0.24295 0.46139,0.73463 0.21845,1.09822 -0.24294,0.36359 -0.73463,0.46139 -1.09822,0.21845 z m 10.4831,6.51881 c -0.3787,-0.21864 -0.50845,-0.70288 -0.28981,-1.08158 0.21864,-0.3787 0.70288,-0.50845 1.08158,-0.28981 0.3787,0.21865 0.50845,0.70289 0.28981,1.08158 -0.21864,0.3787 -0.70288,0.50845 -1.08158,0.28981 z m 10.88701,5.81923 c -0.39219,-0.19341 -0.55334,-0.66812 -0.35993,-1.06031 0.1934,-0.39219 0.66812,-0.55333 1.06031,-0.35993 0.39219,0.19341 0.55333,0.66812 0.35993,1.06031 -0.19341,0.39219 -0.66813,0.55333 -1.06031,0.35993 z m 11.24429,5.09472 c -0.404,-0.16734 -0.59585,-0.6305 -0.42851,-1.0345 0.16734,-0.404 0.63051,-0.59584 1.0345,-0.4285 0.404,0.16734 0.59585,0.6305 0.42851,1.0345 -0.16734,0.40399 -0.63051,0.59584 -1.0345,0.4285 z m 11.55342,4.3484 c -0.41407,-0.14056 -0.6358,-0.59018 -0.49524,-1.00426 0.14056,-0.41407 0.59018,-0.6358 1.00426,-0.49524 0.41407,0.14056 0.6358,0.59018 0.49524,1.00426 -0.14056,0.41407 -0.59018,0.6358 -1.00426,0.49524 z m 11.81309,3.58346 c -0.42238,-0.11317 -0.67304,-0.54733 -0.55986,-0.96971 0.11317,-0.42239 0.54733,-0.67305 0.96971,-0.55987 0.42239,0.11318 0.67305,0.54733 0.55987,0.96972 -0.11318,0.42238 -0.54733,0.67304 -0.96972,0.55986 z m 12.02217,2.80318 c -0.42888,-0.0853 -0.7074,-0.50214 -0.62209,-0.93103 0.0853,-0.42888 0.50214,-0.7074 0.93102,-0.62209 0.42888,0.0853 0.7074,0.50215 0.62209,0.93103 -0.0853,0.42888 -0.50214,0.7074 -0.93102,0.62209 z m 12.17976,2.01089 c -0.43354,-0.0571 -0.73873,-0.45481 -0.68165,-0.88835 0.0571,-0.43354 0.4548,-0.73873 0.88835,-0.68165 0.43354,0.0571 0.73872,0.4548 0.68165,0.88835 -0.0571,0.43354 -0.45481,0.73872 -0.88835,0.68165 z m 12.2852,1.20998 c -0.43634,-0.0286 -0.76689,-0.40551 -0.73829,-0.84186 0.0286,-0.43634 0.40552,-0.76689 0.84186,-0.73829 0.43635,0.0286 0.76689,0.40551 0.73829,0.84186 -0.0286,0.43635 -0.40551,0.76689 -0.84186,0.73829 z m 12.33804,0.40391 c -0.43728,0 -0.79177,-0.35449 -0.79177,-0.79177 0,-0.43729 0.35449,-0.79177 0.79177,-0.79177 0.43728,0 0.79177,0.35448 0.79177,0.79177 0,0.43728 -0.35449,0.79177 -0.79177,0.79177 z m 12.33804,-0.40391 c -0.43635,0.0286 -0.81326,-0.30194 -0.84186,-0.73829 -0.0286,-0.43635 0.30194,-0.81326 0.73829,-0.84186 0.43634,-0.0286 0.81326,0.30195 0.84186,0.73829 0.0286,0.43635 -0.30195,0.81326 -0.73829,0.84186 z m 12.2852,-1.20998 c -0.43354,0.0571 -0.83127,-0.24811 -0.88835,-0.68165 -0.0571,-0.43355 0.24811,-0.83127 0.68165,-0.88835 0.43355,-0.0571 0.83127,0.24811 0.88835,0.68165 0.0571,0.43354 -0.24811,0.83127 -0.68165,0.88835 z m 12.17976,-2.01089 c -0.42888,0.0853 -0.84571,-0.19321 -0.93102,-0.62209 -0.0853,-0.42888 0.19321,-0.84572 0.62209,-0.93103 0.42888,-0.0853 0.84571,0.19321 0.93102,0.62209 0.0853,0.42889 -0.19321,0.84572 -0.62209,0.93103 z m 12.02217,-2.80318 c -0.42239,0.11318 -0.85654,-0.13748 -0.96972,-0.55986 -0.11318,-0.42239 0.13748,-0.85654 0.55987,-0.96972 0.42238,-0.11318 0.85654,0.13748 0.96971,0.55987 0.11318,0.42238 -0.13748,0.85654 -0.55986,0.96971 z m 11.81309,-3.58346 c -0.41408,0.14056 -0.8637,-0.0812 -1.00426,-0.49524 -0.14056,-0.41408 0.0812,-0.8637 0.49524,-1.00426 0.41408,-0.14056 0.8637,0.0812 1.00426,0.49524 0.14056,0.41408 -0.0812,0.8637 -0.49524,1.00426 z m 11.55342,-4.3484 c -0.40399,0.16734 -0.86716,-0.0245 -1.0345,-0.4285 -0.16734,-0.404 0.0245,-0.86716 0.42851,-1.0345 0.40399,-0.16734 0.86716,0.0245 1.0345,0.4285 0.16734,0.404 -0.0245,0.86716 -0.42851,1.0345 z m 11.24429,-5.09472 c -0.39218,0.1934 -0.8669,0.0323 -1.06031,-0.35993 -0.1934,-0.39219 -0.0323,-0.8669 0.35993,-1.06031 0.39219,-0.1934 0.86691,-0.0323 1.06031,0.35993 0.19341,0.39219 0.0323,0.8669 -0.35993,1.06031 z m 10.88701,-5.81923 c -0.3787,0.21864 -0.86294,0.0889 -1.08158,-0.28981 -0.21864,-0.37869 -0.0889,-0.86293 0.28981,-1.08158 0.3787,-0.21864 0.86294,-0.0889 1.08158,0.28981 0.21864,0.3787 0.0889,0.86294 -0.28981,1.08158 z m 10.4831,-6.51881 c -0.36359,0.24294 -0.85528,0.14514 -1.09822,-0.21845 -0.24294,-0.36359 -0.14514,-0.85527 0.21845,-1.09822 0.36359,-0.24294 0.85528,-0.14513 1.09822,0.21845 0.24294,0.36359 0.14514,0.85528 -0.21845,1.09822 z m 10.0343,-7.19048 c -0.34692,0.2662 -0.84395,0.20077 -1.11015,-0.14615 -0.2662,-0.34692 -0.20077,-0.84396 0.14615,-1.11016 0.34692,-0.2662 0.84396,-0.20076 1.11016,0.14616 0.2662,0.34692 0.20076,0.84395 -0.14616,1.11015 z m 9.54254,-7.83136 c -0.32876,0.28832 -0.82901,0.25553 -1.11733,-0.0732 -0.28832,-0.32877 -0.25554,-0.82902 0.0732,-1.11734 0.32877,-0.28832 0.82902,-0.25553 1.11734,0.0732 0.28832,0.32877 0.25553,0.82902 -0.0732,1.11734 z m 9.00992,-8.4387 c -0.30921,0.3092 -0.81053,0.3092 -1.11974,0 -0.3092,-0.30921 -0.3092,-0.81053 0,-1.11974 0.30921,-0.3092 0.81053,-0.3092 1.11974,0 0.3092,0.30921 0.3092,0.81053 0,1.11974 z m 8.4387,-9.00992 c -0.28832,0.32877 -0.78857,0.36156 -1.11734,0.0732 -0.32876,-0.28832 -0.36155,-0.78857 -0.0732,-1.11734 0.28832,-0.32877 0.78857,-0.36155 1.11734,-0.0732 0.32876,0.28832 0.36155,0.78857 0.0732,1.11733 z m 7.83136,-9.54254 c -0.2662,0.34692 -0.76323,0.41236 -1.11015,0.14616 -0.34692,-0.2662 -0.41236,-0.76324 -0.14616,-1.11016 0.2662,-0.34692 0.76324,-0.41235 1.11016,-0.14615 0.34692,0.2662 0.41235,0.76323 0.14615,1.11015 z m 7.19048,-10.0343 c -0.24294,0.36359 -0.73463,0.46139 -1.09822,0.21845 -0.36358,-0.24294 -0.46139,-0.73463 -0.21845,-1.09822 0.24295,-0.36359 0.73463,-0.46139 1.09822,-0.21845 0.36359,0.24294 0.46139,0.73463 0.21845,1.09822 z m 6.51881,-10.4831 c -0.21864,0.3787 -0.70288,0.50845 -1.08158,0.28981 -0.3787,-0.21864 -0.50845,-0.70288 -0.28981,-1.08158 0.21865,-0.3787 0.70289,-0.50845 1.08158,-0.28981 0.3787,0.21864 0.50845,0.70288 0.28981,1.08158 z m 5.81923,-10.88701 c -0.19341,0.39219 -0.66812,0.55334 -1.06031,0.35993 -0.39219,-0.1934 -0.55333,-0.66812 -0.35993,-1.06031 0.19341,-0.39219 0.66812,-0.55333 1.06031,-0.35993 0.39219,0.19341 0.55333,0.66813 0.35993,1.06031 z m 5.09472,-11.24429 c -0.16734,0.404 -0.6305,0.59585 -1.0345,0.42851 -0.404,-0.16734 -0.59584,-0.63051 -0.4285,-1.0345 0.16734,-0.404 0.6305,-0.59585 1.0345,-0.42851 0.40399,0.16734 0.59584,0.63051 0.4285,1.0345 z m 4.3484,-11.55342 c -0.14056,0.41407 -0.59018,0.6358 -1.00426,0.49524 -0.41407,-0.14056 -0.6358,-0.59018 -0.49524,-1.00426 0.14056,-0.41407 0.59018,-0.6358 1.00426,-0.49524 0.41407,0.14056 0.6358,0.59018 0.49524,1.00426 z m 3.58346,-11.81309 c -0.11317,0.42238 -0.54733,0.67304 -0.96971,0.55986 -0.42239,-0.11317 -0.67305,-0.54733 -0.55987,-0.96971 0.11318,-0.42239 0.54733,-0.67305 0.96972,-0.55987 0.42238,0.11318 0.67304,0.54733 0.55986,0.96972 z m 2.80318,-12.02217 c -0.0853,0.42888 -0.50214,0.7074 -0.93103,0.62209 -0.42888,-0.0853 -0.7074,-0.50214 -0.62209,-0.93102 0.0853,-0.42888 0.50215,-0.7074 0.93103,-0.62209 0.42888,0.0853 0.7074,0.50214 0.62209,0.93102 z m 2.01089,-12.17976 c -0.0571,0.43354 -0.45481,0.73873 -0.88835,0.68165 -0.43354,-0.0571 -0.73873,-0.4548 -0.68165,-0.88835 0.0571,-0.43354 0.4548,-0.73872 0.88835,-0.68165 0.43354,0.0571 0.73872,0.45481 0.68165,0.88835 z m 1.20998,-12.2852 c -0.0286,0.43634 -0.40551,0.76689 -0.84186,0.73829 -0.43634,-0.0286 -0.76689,-0.40552 -0.73829,-0.84186 0.0286,-0.43635 0.40551,-0.76689 0.84186,-0.73829 0.43635,0.0286 0.76689,0.40551 0.73829,0.84186 z"
           style="display:inline;opacity:1;fill:#6e6e6e;fill-opacity:1;fill-rule:nonzero;stroke:none;stroke-width:1.5875;stroke-linecap:round;stroke-linejoin:round;stroke-miterlimit:2;stroke-dasharray:none;stroke-dashoffset:0;stroke-opacity:1;paint-order:stroke markers fill"
           transform="translate(-2.3812536,-2.3812536)" /></g><g
         id="g752"
         style="display:inline;stroke-width:1.00002"
         transform="matrix(0.99998152,0,0,0.99998152,4.6799333e-4,-5.948886)"><path
           style="baseline-shift:baseline;display:inline;overflow:visible;opacity:1;vector-effect:none;fill:#6e6e6e;fill-opacity:1;stroke-width:1.00002;stroke-linecap:round;enable-background:accumulate;stop-color:#000000;stop-opacity:1"
           id="path747"
           d="m 32.014572,219.86859 -5.95311,5.95309 5.95311,5.95313 5.953111,-5.95313 z m 0,1.32395 4.629164,4.62914 -4.629164,4.62918 -4.629164,-4.62918 z m 12.204394,1.32135 c -1.823431,0 -3.306769,1.48489 -3.306768,3.30831 -10e-7,1.82344 1.483337,3.30678 3.306768,3.30678 1.823429,0 3.30625,-1.48334 3.306249,-3.30678 10e-7,-1.82342 -1.48282,-3.30831 -3.306249,-3.30831 z m 0,0.52917 c 1.537445,0 2.777085,1.2417 2.777084,2.77914 1e-6,1.53746 -1.239639,2.77762 -2.777084,2.77762 -1.537446,0 -2.77967,-1.24016 -2.779669,-2.77762 -1e-6,-1.53744 1.242223,-2.77914 2.779669,-2.77914 z m -12.204394,0.2651 -2.513535,2.51352 2.513535,2.51354 2.513536,-2.51354 z m 23.54941,0.46922 c -0.142153,0.005 -0.254725,0.123 -0.254248,0.26665 v 3.55687 c 4.94e-4,0.2046 0.220032,0.33201 0.395324,0.22943 l 3.049419,-1.77816 c 0.175974,-0.10227 0.175974,-0.35869 0,-0.46096 l -3.049419,-1.77819 c -0.04277,-0.025 -0.09166,-0.0374 -0.141076,-0.0357 z m -4.499456,0.42581 c -0.890584,1e-5 -1.619019,0.72843 -1.619019,1.61901 0,0.89059 0.728435,1.61747 1.619019,1.61747 0.890582,0 1.616951,-0.72688 1.616951,-1.61747 0,-0.89058 -0.726369,-1.619 -1.616951,-1.61901 z m 0,0.52915 c 0.604602,0 1.087786,0.48525 1.087786,1.08986 0,0.60461 -0.483184,1.0878 -1.087786,1.0878 -0.604601,0 -1.089853,-0.48319 -1.089853,-1.0878 0,-0.60461 0.485252,-1.08986 1.089853,-1.08986 z"
           transform="rotate(67.499999,219.88,225.82001)" /><path
           style="baseline-shift:baseline;display:inline;overflow:visible;opacity:1;vector-effect:none;fill:#6e6e6e;fill-opacity:1;stroke-width:1.00002;stroke-linecap:round;enable-background:accumulate;stop-color:#000000;stop-opacity:1"
           id="path748"
           d="m 32.014572,219.86859 -5.95311,5.95309 5.95311,5.95313 5.953111,-5.95313 z m 0,1.32395 4.629164,4.62914 -4.629164,4.62918 -4.629164,-4.62918 z m 12.204394,1.32135 c -1.823431,0 -3.306769,1.48489 -3.306768,3.30831 -10e-7,1.82344 1.483337,3.30678 3.306768,3.30678 1.823429,0 3.30625,-1.48334 3.306249,-3.30678 10e-7,-1.82342 -1.48282,-3.30831 -3.306249,-3.30831 z m 0,0.52917 c 1.537445,0 2.777085,1.2417 2.777084,2.77914 1e-6,1.53746 -1.239639,2.77762 -2.777084,2.77762 -1.537446,0 -2.77967,-1.24016 -2.779669,-2.77762 -1e-6,-1.53744 1.242223,-2.77914 2.779669,-2.77914 z m -12.204394,0.2651 -2.513535,2.51352 2.513535,2.51354 2.513536,-2.51354 z m 23.54941,0.46922 c -0.142153,0.005 -0.254725,0.123 -0.254248,0.26665 v 3.55687 c 4.94e-4,0.2046 0.220032,0.33201 0.395324,0.22943 l 3.049419,-1.77816 c 0.175974,-0.10227 0.175974,-0.35869 0,-0.46096 l -3.049419,-1.77819 c -0.04277,-0.025 -0.09166,-0.0374 -0.141076,-0.0357 z m -4.499456,0.42581 c -0.890584,1e-5 -1.619019,0.72843 -1.619019,1.61901 0,0.89059 0.728435,1.61747 1.619019,1.61747 0.890582,0 1.616951,-0.72688 1.616951,-1.61747 0,-0.89058 -0.726369,-1.619 -1.616951,-1.61901 z m 0,0.52915 c 0.604602,0 1.087786,0.48525 1.087786,1.08986 0,0.60461 -0.483184,1.0878 -1.087786,1.0878 -0.604601,0 -1.089853,-0.48319 -1.089853,-1.0878 0,-0.60461 0.485252,-1.08986 1.089853,-1.08986 z"
           transform="rotate(112.5,219.88,225.81999)" /><path
           style="baseline-shift:baseline;display:inline;overflow:visible;opacity:1;vector-effect:none;fill:#6e6e6e;fill-opacity:1;stroke-width:1.00002;stroke-linecap:round;enable-background:accumulate;stop-color:#000000;stop-opacity:1"
           id="path749"
           d="m 32.014572,219.86859 -5.95311,5.95309 5.95311,5.95313 5.953111,-5.95313 z m 0,1.32395 4.629164,4.62914 -4.629164,4.62918 -4.629164,-4.62918 z m 12.204394,1.32135 c -1.823431,0 -3.306769,1.48489 -3.306768,3.30831 -10e-7,1.82344 1.483337,3.30678 3.306768,3.30678 1.823429,0 3.30625,-1.48334 3.306249,-3.30678 10e-7,-1.82342 -1.48282,-3.30831 -3.306249,-3.30831 z m 0,0.52917 c 1.537445,0 2.777085,1.2417 2.777084,2.77914 1e-6,1.53746 -1.239639,2.77762 -2.777084,2.77762 -1.537446,0 -2.77967,-1.24016 -2.779669,-2.77762 -1e-6,-1.53744 1.242223,-2.77914 2.779669,-2.77914 z m -12.204394,0.2651 -2.513535,2.51352 2.513535,2.51354 2.513536,-2.51354 z m 23.54941,0.46922 c -0.142153,0.005 -0.254725,0.123 -0.254248,0.26665 v 3.55687 c 4.94e-4,0.2046 0.220032,0.33201 0.395324,0.22943 l 3.049419,-1.77816 c 0.175974,-0.10227 0.175974,-0.35869 0,-0.46096 l -3.049419,-1.77819 c -0.04277,-0.025 -0.09166,-0.0374 -0.141076,-0.0357 z m -4.499456,0.42581 c -0.890584,1e-5 -1.619019,0.72843 -1.619019,1.61901 0,0.89059 0.728435,1.61747 1.619019,1.61747 0.890582,0 1.616951,-0.72688 1.616951,-1.61747 0,-0.89058 -0.726369,-1.619 -1.616951,-1.61901 z m 0,0.52915 c 0.604602,0 1.087786,0.48525 1.087786,1.08986 0,0.60461 -0.483184,1.0878 -1.087786,1.0878 -0.604601,0 -1.089853,-0.48319 -1.089853,-1.0878 0,-0.60461 0.485252,-1.08986 1.089853,-1.08986 z"
           transform="rotate(180,219.88,225.82)" /><path
           style="baseline-shift:baseline;display:inline;overflow:visible;opacity:1;vector-effect:none;fill:#6e6e6e;fill-opacity:1;stroke-width:1.00002;stroke-linecap:round;enable-background:accumulate;stop-color:#000000;stop-opacity:1"
           id="path750"
           d="m 32.014572,219.86859 -5.95311,5.95309 5.95311,5.95313 5.953111,-5.95313 z m 0,1.32395 4.629164,4.62914 -4.629164,4.62918 -4.629164,-4.62918 z m 12.204394,1.32135 c -1.823431,0 -3.306769,1.48489 -3.306768,3.30831 -10e-7,1.82344 1.483337,3.30678 3.306768,3.30678 1.823429,0 3.30625,-1.48334 3.306249,-3.30678 10e-7,-1.82342 -1.48282,-3.30831 -3.306249,-3.30831 z m 0,0.52917 c 1.537445,0 2.777085,1.2417 2.777084,2.77914 1e-6,1.53746 -1.239639,2.77762 -2.777084,2.77762 -1.537446,0 -2.77967,-1.24016 -2.779669,-2.77762 -1e-6,-1.53744 1.242223,-2.77914 2.779669,-2.77914 z m -12.204394,0.2651 -2.513535,2.51352 2.513535,2.51354 2.513536,-2.51354 z m 23.54941,0.46922 c -0.142153,0.005 -0.254725,0.123 -0.254248,0.26665 v 3.55687 c 4.94e-4,0.2046 0.220032,0.33201 0.395324,0.22943 l 3.049419,-1.77816 c 0.175974,-0.10227 0.175974,-0.35869 0,-0.46096 l -3.049419,-1.77819 c -0.04277,-0.025 -0.09166,-0.0374 -0.141076,-0.0357 z m -4.499456,0.42581 c -0.890584,1e-5 -1.619019,0.72843 -1.619019,1.61901 0,0.89059 0.728435,1.61747 1.619019,1.61747 0.890582,0 1.616951,-0.72688 1.616951,-1.61747 0,-0.89058 -0.726369,-1.619 -1.616951,-1.61901 z m 0,0.52915 c 0.604602,0 1.087786,0.48525 1.087786,1.08986 0,0.60461 -0.483184,1.0878 -1.087786,1.0878 -0.604601,0 -1.089853,-0.48319 -1.089853,-1.0878 0,-0.60461 0.485252,-1.08986 1.089853,-1.08986 z"
           transform="rotate(-135,219.88,225.82)" /><path
           style="baseline-shift:baseline;display:inline;overflow:visible;opacity:1;vector-effect:none;fill:#6e6e6e;fill-opacity:1;stroke-width:1.00002;stroke-linecap:round;enable-background:accumulate;stop-color:#000000;stop-opacity:1"
           id="path751"
           d="m 32.014572,219.86859 -5.95311,5.95309 5.95311,5.95313 5.953111,-5.95313 z m 0,1.32395 4.629164,4.62914 -4.629164,4.62918 -4.629164,-4.62918 z m 12.204394,1.32135 c -1.823431,0 -3.306769,1.48489 -3.306768,3.30831 -10e-7,1.82344 1.483337,3.30678 3.306768,3.30678 1.823429,0 3.30625,-1.48334 3.306249,-3.30678 10e-7,-1.82342 -1.48282,-3.30831 -3.306249,-3.30831 z m 0,0.52917 c 1.537445,0 2.777085,1.2417 2.777084,2.77914 1e-6,1.53746 -1.239639,2.77762 -2.777084,2.77762 -1.537446,0 -2.77967,-1.24016 -2.779669,-2.77762 -1e-6,-1.53744 1.242223,-2.77914 2.779669,-2.77914 z m -12.204394,0.2651 -2.513535,2.51352 2.513535,2.51354 2.513536,-2.51354 z m 23.54941,0.46922 c -0.142153,0.005 -0.254725,0.123 -0.254248,0.26665 v 3.55687 c 4.94e-4,0.2046 0.220032,0.33201 0.395324,0.22943 l 3.049419,-1.77816 c 0.175974,-0.10227 0.175974,-0.35869 0,-0.46096 l -3.049419,-1.77819 c -0.04277,-0.025 -0.09166,-0.0374 -0.141076,-0.0357 z m -4.499456,0.42581 c -0.890584,1e-5 -1.619019,0.72843 -1.619019,1.61901 0,0.89059 0.728435,1.61747 1.619019,1.61747 0.890582,0 1.616951,-0.72688 1.616951,-1.61747 0,-0.89058 -0.726369,-1.619 -1.616951,-1.61901 z m 0,0.52915 c 0.604602,0 1.087786,0.48525 1.087786,1.08986 0,0.60461 -0.483184,1.0878 -1.087786,1.0878 -0.604601,0 -1.089853,-0.48319 -1.089853,-1.0878 0,-0.60461 0.485252,-1.08986 1.089853,-1.08986 z"
           transform="rotate(-67.499999,219.88,225.82)" /><path
           style="baseline-shift:baseline;display:inline;overflow:visible;opacity:1;vector-effect:none;fill:#6e6e6e;fill-opacity:1;stroke-width:1.00002;stroke-linecap:round;enable-background:accumulate;stop-color:#000000;stop-opacity:1"
           id="path752"
           d="m 32.014572,219.86859 -5.95311,5.95309 5.95311,5.95313 5.953111,-5.95313 z m 0,1.32395 4.629164,4.62914 -4.629164,4.62918 -4.629164,-4.62918 z m 12.204394,1.32135 c -1.823431,0 -3.306769,1.48489 -3.306768,3.30831 -10e-7,1.82344 1.483337,3.30678 3.306768,3.30678 1.823429,0 3.30625,-1.48334 3.306249,-3.30678 10e-7,-1.82342 -1.48282,-3.30831 -3.306249,-3.30831 z m 0,0.52917 c 1.537445,0 2.777085,1.2417 2.777084,2.77914 1e-6,1.53746 -1.239639,2.77762 -2.777084,2.77762 -1.537446,0 -2.77967,-1.24016 -2.779669,-2.77762 -1e-6,-1.53744 1.242223,-2.77914 2.779669,-2.77914 z m -12.204394,0.2651 -2.513535,2.51352 2.513535,2.51354 2.513536,-2.51354 z m 23.54941,0.46922 c -0.142153,0.005 -0.254725,0.123 -0.254248,0.26665 v 3.55687 c 4.94e-4,0.2046 0.220032,0.33201 0.395324,0.22943 l 3.049419,-1.77816 c 0.175974,-0.10227 0.175974,-0.35869 0,-0.46096 l -3.049419,-1.77819 c -0.04277,-0.025 -0.09166,-0.0374 -0.141076,-0.0357 z m -4.499456,0.42581 c -0.890584,1e-5 -1.619019,0.72843 -1.619019,1.61901 0,0.89059 0.728435,1.61747 1.619019,1.61747 0.890582,0 1.616951,-0.72688 1.616951,-1.61747 0,-0.89058 -0.726369,-1.619 -1.616951,-1.61901 z m 0,0.52915 c 0.604602,0 1.087786,0.48525 1.087786,1.08986 0,0.60461 -0.483184,1.0878 -1.087786,1.0878 -0.604601,0 -1.089853,-0.48319 -1.089853,-1.0878 0,-0.60461 0.485252,-1.08986 1.089853,-1.08986 z"
           transform="rotate(-22.500001,219.87999,225.81999)" /></g></g><g
       id="g760"
       transform="translate(2.3812536,2.3812536)"
       style="display:inline"><g
         id="g754"
         style="display:inline"><path
           id="path753"
           style="display:inline;fill:url(#radialGradient449);stroke-width:1.5875;stroke-linecap:round;stroke-dasharray:0, 12.7"
           d="M 370.15208,219.86874 A 150.28334,150.28334 0 0 1 219.86874,370.15208 150.28334,150.28334 0 0 1 69.585403,219.86874 150.28334,150.28334 0 0 1 219.86874,69.585403 150.28334,150.28334 0 0 1 370.15208,219.86874 Z" /><path
           id="path754"
           d="m 373.32508,222.24998 c 0,0.43728 -0.35448,0.79175 -0.79175,0.79175 -0.43728,0 -0.79176,-0.35447 -0.79176,-0.79175 0,-0.43727 0.35448,-0.79175 0.79176,-0.79175 0.43727,0 0.79175,0.35448 0.79175,0.79175 z m -1.29246,-19.71925 c 0.0571,0.43353 -0.24811,0.83124 -0.68164,0.88832 -0.43354,0.0571 -0.83126,-0.2481 -0.88833,-0.68163 -0.0571,-0.43353 0.2481,-0.83125 0.68164,-0.88832 0.43353,-0.0571 0.83125,0.2481 0.88833,0.68163 z m -3.85529,-19.38185 c 0.11317,0.42237 -0.13749,0.85651 -0.55986,0.96969 -0.42238,0.11317 -0.85653,-0.13748 -0.9697,-0.55985 -0.11318,-0.42237 0.13748,-0.85652 0.55986,-0.96969 0.42237,-0.11318 0.85652,0.13747 0.9697,0.55985 z m -6.35215,-18.71283 c 0.16734,0.40399 -0.0245,0.86714 -0.4285,1.03448 -0.40399,0.16734 -0.86714,-0.0245 -1.03448,-0.42849 -0.16734,-0.40399 0.0245,-0.86714 0.4285,-1.03448 0.40399,-0.16733 0.86714,0.0245 1.03448,0.42849 z m -8.74032,-17.72361 c 0.21864,0.37869 0.0889,0.86292 -0.28981,1.08156 -0.37869,0.21864 -0.86292,0.0889 -1.08155,-0.2898 -0.21864,-0.37869 -0.0889,-0.86292 0.2898,-1.08155 0.3787,-0.21864 0.86293,-0.0889 1.08156,0.28979 z M 342.10593,130.2813 c 0.26619,0.34691 0.20075,0.84393 -0.14616,1.11013 -0.34692,0.2662 -0.84394,0.20076 -1.11013,-0.14615 -0.2662,-0.34691 -0.20076,-0.84393 0.14615,-1.11013 0.34692,-0.26619 0.84394,-0.20076 1.11014,0.14615 z m -13.02971,-14.85753 c 0.3092,0.30919 0.30919,0.81051 -10e-6,1.11971 -0.3092,0.3092 -0.81051,0.3092 -1.11971,0 -0.30919,-0.30919 -0.30919,-0.81051 10e-6,-1.11971 0.3092,-0.3092 0.81051,-0.3092 1.11971,0 z m -14.85753,-13.02971 c 0.34691,0.26619 0.41234,0.76322 0.14614,1.11013 -0.26619,0.34692 -0.76322,0.41235 -1.11013,0.14616 -0.34691,-0.26619 -0.41234,-0.76322 -0.14614,-1.11013 0.26619,-0.34692 0.76322,-0.41235 1.11013,-0.14616 z M 297.78755,91.415122 c 0.37868,0.218636 0.50843,0.702866 0.28979,1.081558 -0.21864,0.378692 -0.70286,0.508444 -1.08155,0.289808 -0.37869,-0.218636 -0.50844,-0.702866 -0.2898,-1.081558 0.21864,-0.378692 0.70287,-0.508444 1.08156,-0.289808 z m -17.72361,-8.740318 c 0.40398,0.167337 0.59582,0.630489 0.42848,1.034479 -0.16733,0.403991 -0.63048,0.595837 -1.03447,0.4285 -0.40399,-0.167336 -0.59583,-0.630489 -0.42849,-1.034479 0.16734,-0.403991 0.63049,-0.595836 1.03448,-0.4285 z m -18.71283,-6.352148 c 0.42238,0.113174 0.67303,0.547324 0.55985,0.9697 -0.11317,0.422376 -0.54732,0.673034 -0.96969,0.55986 -0.42237,-0.113174 -0.67303,-0.547323 -0.55985,-0.9697 0.11317,-0.422376 0.54732,-0.673034 0.96969,-0.55986 z m -19.38185,-3.855291 c 0.43353,0.05708 0.73871,0.454794 0.68163,0.888329 -0.0571,0.433535 -0.45479,0.738716 -0.88832,0.681641 -0.43353,-0.05707 -0.73871,-0.454794 -0.68163,-0.888329 0.0571,-0.433535 0.45479,-0.738716 0.88832,-0.681641 z M 222.25,71.174896 c 0.43728,0 0.79175,0.354483 0.79175,0.791759 0,0.437276 -0.35447,0.791758 -0.79175,0.791758 -0.43727,0 -0.79175,-0.354482 -0.79175,-0.791758 0,-0.437276 0.35448,-0.791759 0.79175,-0.791759 z m -19.71925,1.292468 c 0.43353,-0.05707 0.83124,0.248106 0.88832,0.681641 0.0571,0.433535 -0.2481,0.831253 -0.68163,0.888329 -0.43353,0.05707 -0.83125,-0.248106 -0.88832,-0.681641 -0.0571,-0.433535 0.2481,-0.831254 0.68163,-0.888329 z m -19.38185,3.85529 c 0.42237,-0.113174 0.85651,0.137483 0.96969,0.55986 0.11317,0.422376 -0.13748,0.856526 -0.55985,0.9697 -0.42237,0.113174 -0.85652,-0.137484 -0.96969,-0.55986 -0.11318,-0.422377 0.13747,-0.856526 0.55985,-0.9697 z M 164.43607,82.6748 c 0.40399,-0.167336 0.86714,0.02451 1.03448,0.4285 0.16734,0.403991 -0.0245,0.867143 -0.42849,1.034479 -0.40399,0.167337 -0.86714,-0.02451 -1.03448,-0.428499 -0.16733,-0.403991 0.0245,-0.867143 0.42849,-1.03448 z m -17.72361,8.740317 c 0.37869,-0.218635 0.86292,-0.08888 1.08156,0.289808 0.21864,0.378693 0.0889,0.862923 -0.2898,1.081558 -0.37869,0.218636 -0.86292,0.08888 -1.08155,-0.289808 -0.21864,-0.378692 -0.0889,-0.862922 0.28979,-1.081558 z m -16.43114,10.978933 c 0.34691,-0.26619 0.84393,-0.20075 1.11013,0.14616 0.2662,0.34692 0.20076,0.84394 -0.14615,1.11013 -0.34691,0.2662 -0.84393,0.20076 -1.11013,-0.14615 -0.26619,-0.34692 -0.20076,-0.84394 0.14615,-1.11014 z m -14.85753,13.02971 c 0.30919,-0.3092 0.81051,-0.30919 1.11971,1e-5 0.3092,0.3092 0.3092,0.81051 0,1.11971 -0.30919,0.30919 -0.81051,0.30919 -1.11971,-1e-5 -0.3092,-0.3092 -0.3092,-0.81051 0,-1.11971 z m -13.02971,14.85753 c 0.26619,-0.34691 0.76322,-0.41234 1.11013,-0.14614 0.34692,0.26619 0.41235,0.76322 0.14616,1.11013 -0.26619,0.34691 -0.76322,0.41234 -1.11013,0.14614 -0.34692,-0.26619 -0.41235,-0.76322 -0.14616,-1.11013 z m -10.978938,16.43114 c 0.218636,-0.37868 0.702866,-0.50843 1.081558,-0.28979 0.378692,0.21864 0.508444,0.70286 0.289808,1.08155 -0.218636,0.37869 -0.702866,0.50844 -1.081558,0.2898 -0.378692,-0.21864 -0.508444,-0.70287 -0.289808,-1.08156 z m -8.740318,17.72361 c 0.167337,-0.40398 0.630489,-0.59582 1.034479,-0.42848 0.403991,0.16733 0.595837,0.63048 0.4285,1.03447 -0.167336,0.40399 -0.630489,0.59583 -1.034479,0.42849 -0.403991,-0.16734 -0.595836,-0.63049 -0.4285,-1.03448 z m -6.352148,18.71283 c 0.113174,-0.42238 0.547324,-0.67303 0.9697,-0.55985 0.422376,0.11317 0.673034,0.54732 0.55986,0.96969 -0.113174,0.42237 -0.547323,0.67303 -0.9697,0.55985 -0.422376,-0.11317 -0.673034,-0.54732 -0.55986,-0.96969 z m -3.855291,19.38185 c 0.05708,-0.43353 0.454794,-0.73871 0.888329,-0.68163 0.433535,0.0571 0.738716,0.45479 0.681641,0.88832 -0.05708,0.43353 -0.454794,0.73871 -0.888329,0.68163 -0.433535,-0.0571 -0.738716,-0.45479 -0.681641,-0.88832 z m -1.292469,19.71926 c 0,-0.43728 0.354483,-0.79175 0.791759,-0.79175 0.437276,0 0.791758,0.35447 0.791758,0.79175 0,0.43727 -0.354482,0.79175 -0.791758,0.79175 -0.437276,0 -0.791759,-0.35448 -0.791759,-0.79175 z m 1.292468,19.71925 c -0.05707,-0.43353 0.248106,-0.83124 0.681641,-0.88832 0.433535,-0.0571 0.831253,0.2481 0.888329,0.68163 0.05708,0.43353 -0.248106,0.83125 -0.681641,0.88832 -0.433535,0.0571 -0.831254,-0.2481 -0.888329,-0.68163 z m 3.85529,19.38185 c -0.113174,-0.42237 0.137483,-0.85651 0.55986,-0.96969 0.422376,-0.11317 0.856526,0.13748 0.9697,0.55985 0.113174,0.42237 -0.137484,0.85652 -0.55986,0.96969 -0.422377,0.11318 -0.856526,-0.13747 -0.9697,-0.55985 z m 6.352146,18.71283 c -0.167336,-0.40399 0.02451,-0.86714 0.4285,-1.03448 0.403991,-0.16734 0.867143,0.0245 1.034479,0.42849 0.167337,0.40399 -0.02451,0.86714 -0.428499,1.03448 -0.403991,0.16733 -0.867143,-0.0245 -1.03448,-0.42849 z m 8.740317,17.72361 c -0.218635,-0.37869 -0.08888,-0.86292 0.289808,-1.08156 0.378693,-0.21864 0.862923,-0.0889 1.081558,0.2898 0.218636,0.37869 0.08888,0.86292 -0.289808,1.08155 -0.378692,0.21864 -0.862922,0.0889 -1.081558,-0.28979 z m 10.978933,16.43114 c -0.26619,-0.34691 -0.20075,-0.84393 0.14616,-1.11013 0.34692,-0.2662 0.84394,-0.20076 1.11013,0.14615 0.2662,0.34691 0.20076,0.84393 -0.14615,1.11013 -0.34692,0.26619 -0.84394,0.20076 -1.11014,-0.14615 z m 13.02971,14.85753 c -0.3092,-0.30919 -0.30919,-0.81051 1e-5,-1.11971 0.3092,-0.3092 0.81051,-0.3092 1.11971,0 0.30919,0.30919 0.30919,0.81051 -10e-6,1.11971 -0.3092,0.3092 -0.81051,0.3092 -1.11971,0 z m 14.85753,13.02971 c -0.34691,-0.26619 -0.41234,-0.76322 -0.14614,-1.11013 0.26619,-0.34692 0.76322,-0.41235 1.11013,-0.14616 0.34691,0.26619 0.41234,0.76322 0.14614,1.11013 -0.26619,0.34692 -0.76322,0.41235 -1.11013,0.14616 z m 16.43114,10.97894 c -0.37868,-0.21864 -0.50843,-0.70287 -0.28979,-1.08156 0.21864,-0.37869 0.70286,-0.50844 1.08155,-0.28981 0.37869,0.21864 0.50844,0.70287 0.2898,1.08156 -0.21864,0.37869 -0.70287,0.50844 -1.08156,0.28981 z m 17.72361,8.74032 c -0.40398,-0.16734 -0.59582,-0.63049 -0.42848,-1.03448 0.16733,-0.40399 0.63048,-0.59584 1.03447,-0.4285 0.40399,0.16733 0.59583,0.63049 0.42849,1.03448 -0.16734,0.40399 -0.63049,0.59583 -1.03448,0.4285 z m 18.71283,6.35214 c -0.42238,-0.11317 -0.67303,-0.54732 -0.55985,-0.9697 0.11317,-0.42237 0.54732,-0.67303 0.96969,-0.55986 0.42237,0.11318 0.67303,0.54733 0.55985,0.9697 -0.11317,0.42238 -0.54732,0.67304 -0.96969,0.55986 z m 19.38185,3.85529 c -0.43353,-0.0571 -0.73871,-0.45479 -0.68163,-0.88832 0.0571,-0.43354 0.45479,-0.73872 0.88832,-0.68165 0.43353,0.0571 0.73871,0.4548 0.68163,0.88833 -0.0571,0.43354 -0.45479,0.73872 -0.88832,0.68164 z m 19.71926,1.29247 c -0.43728,0 -0.79175,-0.35448 -0.79175,-0.79175 0,-0.43728 0.35447,-0.79176 0.79175,-0.79176 0.43727,0 0.79175,0.35448 0.79175,0.79176 0,0.43727 -0.35448,0.79175 -0.79175,0.79175 z m 19.71925,-1.29246 c -0.43353,0.0571 -0.83124,-0.24811 -0.88832,-0.68164 -0.0571,-0.43354 0.2481,-0.83126 0.68163,-0.88833 0.43353,-0.0571 0.83125,0.2481 0.88832,0.68164 0.0571,0.43353 -0.2481,0.83125 -0.68163,0.88833 z m 19.38185,-3.85529 c -0.42237,0.11317 -0.85651,-0.13749 -0.96969,-0.55986 -0.11317,-0.42238 0.13748,-0.85653 0.55985,-0.9697 0.42237,-0.11318 0.85652,0.13748 0.96969,0.55986 0.11318,0.42237 -0.13747,0.85652 -0.55985,0.9697 z m 18.71283,-6.35215 c -0.40399,0.16734 -0.86714,-0.0245 -1.03448,-0.4285 -0.16734,-0.40399 0.0245,-0.86714 0.42849,-1.03448 0.40399,-0.16734 0.86714,0.0245 1.03448,0.4285 0.16733,0.40399 -0.0245,0.86714 -0.42849,1.03448 z m 17.72361,-8.74032 c -0.37869,0.21864 -0.86292,0.0889 -1.08156,-0.28981 -0.21864,-0.37869 -0.0889,-0.86292 0.2898,-1.08155 0.37869,-0.21864 0.86292,-0.0889 1.08155,0.2898 0.21864,0.3787 0.0889,0.86293 -0.28979,1.08156 z m 16.43114,-10.97893 c -0.34691,0.26619 -0.84393,0.20075 -1.11013,-0.14616 -0.2662,-0.34692 -0.20076,-0.84394 0.14615,-1.11013 0.34691,-0.2662 0.84393,-0.20076 1.11013,0.14615 0.26619,0.34692 0.20076,0.84394 -0.14615,1.11014 z m 14.85753,-13.02971 c -0.30919,0.3092 -0.81051,0.30919 -1.11971,-10e-6 -0.3092,-0.3092 -0.3092,-0.81051 0,-1.11971 0.30919,-0.30919 0.81051,-0.30919 1.11971,10e-6 0.3092,0.3092 0.3092,0.81051 0,1.11971 z m 13.02971,-14.85753 c -0.26619,0.34691 -0.76322,0.41234 -1.11013,0.14614 -0.34692,-0.26619 -0.41235,-0.76322 -0.14616,-1.11013 0.26619,-0.34691 0.76322,-0.41234 1.11013,-0.14614 0.34692,0.26619 0.41235,0.76322 0.14616,1.11013 z m 10.97894,-16.43114 c -0.21864,0.37868 -0.70287,0.50843 -1.08156,0.28979 -0.37869,-0.21864 -0.50844,-0.70286 -0.28981,-1.08155 0.21864,-0.37869 0.70287,-0.50844 1.08156,-0.2898 0.37869,0.21864 0.50844,0.70287 0.28981,1.08156 z m 8.74032,-17.72361 c -0.16734,0.40398 -0.63049,0.59582 -1.03448,0.42848 -0.40399,-0.16733 -0.59584,-0.63048 -0.4285,-1.03447 0.16733,-0.40399 0.63049,-0.59583 1.03448,-0.42849 0.40399,0.16734 0.59583,0.63049 0.4285,1.03448 z m 6.35214,-18.71283 c -0.11317,0.42238 -0.54732,0.67303 -0.9697,0.55985 -0.42237,-0.11317 -0.67303,-0.54732 -0.55986,-0.96969 0.11318,-0.42237 0.54733,-0.67303 0.9697,-0.55985 0.42238,0.11317 0.67304,0.54732 0.55986,0.96969 z m 3.85529,-19.38185 c -0.0571,0.43353 -0.45479,0.73871 -0.88832,0.68163 -0.43354,-0.0571 -0.73872,-0.45479 -0.68165,-0.88832 0.0571,-0.43353 0.4548,-0.73871 0.88833,-0.68163 0.43354,0.0571 0.73872,0.45479 0.68164,0.88832 z"
           style="display:inline;opacity:1;fill:#6e6e6e;fill-opacity:1;fill-rule:nonzero;stroke:none;stroke-width:1.5875;stroke-linecap:round;stroke-linejoin:round;stroke-miterlimit:2;stroke-dasharray:none;stroke-dashoffset:0;stroke-opacity:1;paint-order:stroke markers fill"
           transform="translate(-2.3812536,-2.3812536)" /></g><g
         id="g759"
         style="display:inline"
         transform="translate(-2.3812536,-2.3812536)"><path
           style="opacity:1;fill:#6e6e6e;fill-opacity:1;fill-rule:nonzero;stroke:none;stroke-width:1.5875;stroke-linecap:round;stroke-linejoin:round;stroke-miterlimit:2;stroke-dasharray:none;stroke-dashoffset:0;stroke-opacity:1;paint-order:stroke markers fill"
           id="path755"
           d="m 375.70033,222.24998 c 0,1.74909 -1.41793,3.167 -3.16704,3.167 -1.7491,0 -3.16703,-1.41791 -3.16703,-3.167 0,-1.74908 1.41793,-3.167 3.16703,-3.167 1.74911,0 3.16704,1.41792 3.16704,3.167 z"
           transform="rotate(-90,222.25,222.25)" /><path
           style="display:inline;opacity:1;fill:#6e6e6e;fill-opacity:1;fill-rule:nonzero;stroke:none;stroke-width:1.5875;stroke-linecap:round;stroke-linejoin:round;stroke-miterlimit:2;stroke-dasharray:none;stroke-dashoffset:0;stroke-opacity:1;paint-order:stroke markers fill"
           id="path756"
           d="m 375.70033,222.24998 c 0,1.74909 -1.41793,3.167 -3.16704,3.167 -1.7491,0 -3.16703,-1.41791 -3.16703,-3.167 0,-1.74908 1.41793,-3.167 3.16703,-3.167 1.74911,0 3.16704,1.41792 3.16704,3.167 z"
           transform="rotate(-30,222.25,222.25)" /><path
           style="display:inline;opacity:1;fill:#6e6e6e;fill-opacity:1;fill-rule:nonzero;stroke:none;stroke-width:1.5875;stroke-linecap:round;stroke-linejoin:round;stroke-miterlimit:2;stroke-dasharray:none;stroke-dashoffset:0;stroke-opacity:1;paint-order:stroke markers fill"
           id="path757"
           d="m 375.70033,222.24998 c 0,1.74909 -1.41793,3.167 -3.16704,3.167 -1.7491,0 -3.16703,-1.41791 -3.16703,-3.167 0,-1.74908 1.41793,-3.167 3.16703,-3.167 1.74911,0 3.16704,1.41792 3.16704,3.167 z"
           transform="rotate(30,222.25,222.25)" /><path
           style="opacity:1;fill:#6e6e6e;fill-opacity:1;fill-rule:nonzero;stroke:none;stroke-width:1.5875;stroke-linecap:round;stroke-linejoin:round;stroke-miterlimit:2;stroke-dasharray:none;stroke-dashoffset:0;stroke-opacity:1;paint-order:stroke markers fill"
           id="path758"
           d="m 375.70033,222.24998 c 0,1.74909 -1.41793,3.167 -3.16704,3.167 -1.7491,0 -3.16703,-1.41791 -3.16703,-3.167 0,-1.74908 1.41793,-3.167 3.16703,-3.167 1.74911,0 3.16704,1.41792 3.16704,3.167 z"
           transform="rotate(105,222.25,222.25)" /><path
           style="display:inline;opacity:1;fill:#6e6e6e;fill-opacity:1;fill-rule:nonzero;stroke:none;stroke-width:1.5875;stroke-linecap:round;stroke-linejoin:round;stroke-miterlimit:2;stroke-dasharray:none;stroke-dashoffset:0;stroke-opacity:1;paint-order:stroke markers fill"
           id="path759"
           d="m 375.70033,222.24998 c 0,1.74909 -1.41793,3.167 -3.16704,3.167 -1.7491,0 -3.16703,-1.41791 -3.16703,-3.167 0,-1.74908 1.41793,-3.167 3.16703,-3.167 1.74911,0 3.16704,1.41792 3.16704,3.167 z"
           transform="rotate(180,222.25,222.25)" /></g></g><g
       id="g778"
       style="display:inline"><g
         id="g768"><path
           style="baseline-shift:baseline;display:inline;overflow:visible;opacity:1;vector-effect:none;fill:#6e6e6e;fill-opacity:1;stroke-linecap:round;stroke-linejoin:round;stroke-miterlimit:2;paint-order:stroke markers fill;enable-background:accumulate;stop-color:#000000;stop-opacity:1"
           d="m 30.457038,174.09114 -34.3416573,-9.20196 a 0.79374999,0.79374999 0 0 1 -0.5617636,-0.97243 0.79374999,0.79374999 0 0 1 0.9710642,-0.56086 l 34.3463207,9.20339 a 197.11458,197.11458 0 0 0 -0.413964,1.53186 z"
           transform="rotate(-165,221.4706,222.04737)"
           id="path760" /><path
           style="baseline-shift:baseline;display:inline;overflow:visible;opacity:1;vector-effect:none;fill:#6e6e6e;fill-opacity:1;stroke-linecap:round;stroke-linejoin:round;stroke-miterlimit:2;paint-order:stroke markers fill;enable-background:accumulate;stop-color:#000000;stop-opacity:1"
           d="M 50.063656,126.51421 -42.594687,73.018314 a 0.79374999,0.79374999 45 0 1 -0.290767,-1.08516 0.79374999,0.79374999 45 0 1 1.084666,-0.290635 l 92.661275,53.498861 a 197.11458,197.11458 0 0 0 -0.796831,1.37283 z"
           transform="rotate(-165,221.4706,222.04737)"
           id="path761" /><path
           style="baseline-shift:baseline;display:inline;overflow:visible;opacity:1;vector-effect:none;fill:#6e6e6e;fill-opacity:1;stroke-linecap:round;stroke-linejoin:round;stroke-miterlimit:2;paint-order:stroke markers fill;enable-background:accumulate;stop-color:#000000;stop-opacity:1"
           d="M 81.314286,85.635477 58.811701,63.132737 a 0.79374999,0.79374999 0 0 1 1.53e-4,-1.12352 0.79374999,0.79374999 0 0 1 1.120899,3.2e-4 l 22.506284,22.50656 a 197.11458,197.11458 0 0 0 -1.124252,1.11925 197.11458,197.11458 0 0 0 -4.99e-4,1.3e-4 z"
           transform="rotate(-165,221.4706,222.04737)"
           id="path762" /><path
           style="baseline-shift:baseline;display:inline;overflow:visible;opacity:1;vector-effect:none;fill:#6e6e6e;fill-opacity:1;stroke-linecap:round;stroke-linejoin:round;stroke-miterlimit:2;paint-order:stroke markers fill;enable-background:accumulate;stop-color:#000000;stop-opacity:1"
           d="M 122.07915,54.238351 109.18394,31.903172 a 0.79374999,0.79374999 45 0 1 0.29027,-1.083036 0.79374999,0.79374999 45 0 1 1.08467,0.290366 l 12.89637,22.337551 a 197.11458,197.11458 0 0 0 -1.3761,0.790298 z"
           transform="rotate(-165,221.4706,222.04737)"
           id="path763" /><path
           style="baseline-shift:baseline;display:inline;overflow:visible;opacity:1;vector-effect:none;fill:#6e6e6e;fill-opacity:1;stroke-linecap:round;stroke-linejoin:round;stroke-miterlimit:2;paint-order:stroke markers fill;enable-background:accumulate;stop-color:#000000;stop-opacity:1"
           d="m 169.57839,34.465102 a 197.11458,197.11458 0 0 1 1.18257,-0.320609 197.11458,197.11458 0 0 1 0.35054,-0.09339 l -3.80086,-14.185014 a 0.79374999,0.79374999 0 0 0 -0.97228,-0.561767 0.79374999,0.79374999 0 0 0 -0.56163,0.972774 z"
           transform="rotate(-165,221.4706,222.04737)"
           id="path764" /><path
           style="baseline-shift:baseline;display:inline;overflow:visible;opacity:1;vector-effect:none;fill:#6e6e6e;fill-opacity:1;stroke-linecap:round;stroke-linejoin:round;stroke-miterlimit:2;paint-order:stroke markers fill;enable-background:accumulate;stop-color:#000000;stop-opacity:1"
           d="m 222.13597,27.428208 -10e-6,-25.7904378 a 0.79374999,0.79374999 0 0 0 -0.7929,-0.7927996 0.79374999,0.79374999 0 0 0 -0.79417,0.7937952 l 1.9e-4,25.7930752 a 197.11458,197.11458 0 0 1 1.58689,-0.0036 z"
           transform="rotate(-165,221.4706,222.04737)"
           id="path765" /><path
           style="baseline-shift:baseline;display:inline;overflow:visible;opacity:1;vector-effect:none;fill:#6e6e6e;fill-opacity:1;stroke-linecap:round;stroke-linejoin:round;stroke-miterlimit:2;paint-order:stroke markers fill;enable-background:accumulate;stop-color:#000000;stop-opacity:1"
           d="m 273.13794,34.236484 8.23644,-30.7392374 a 0.79374999,0.79374999 0 0 0 -0.56189,-0.9729204 0.79374999,0.79374999 0 0 0 -0.97057,0.5607267 l -8.23773,30.7443951 a 197.11458,197.11458 0 0 1 1.53325,0.407173 197.11458,197.11458 0 0 1 5e-4,-1.37e-4 z"
           transform="rotate(-165,221.4706,222.04737)"
           id="path766" /><path
           style="baseline-shift:baseline;display:inline;overflow:visible;opacity:1;vector-effect:none;fill:#6e6e6e;fill-opacity:1;stroke-linecap:round;stroke-linejoin:round;stroke-miterlimit:2;paint-order:stroke markers fill;enable-background:accumulate;stop-color:#000000;stop-opacity:1"
           d="m 320.64115,54.013188 53.49653,-92.657975 a 0.79374999,0.79374999 45 0 0 -0.29077,-1.085159 0.79374999,0.79374999 45 0 0 -1.08467,0.290635 l -53.49759,92.662006 a 197.11458,197.11458 0 0 1 1.3765,0.790493 z"
           transform="rotate(-165,221.4706,222.04737)"
           id="path767" /><path
           style="baseline-shift:baseline;display:inline;overflow:visible;opacity:1;vector-effect:none;fill:#6e6e6e;fill-opacity:1;stroke-linecap:round;stroke-linejoin:round;stroke-miterlimit:2;paint-order:stroke markers fill;enable-background:accumulate;stop-color:#000000;stop-opacity:1"
           d="m 361.40944,85.412714 25.13977,-25.13996 a 0.79374999,0.79374999 0 0 0 2.9e-4,-1.12303 0.79374999,0.79374999 0 0 0 -1.1214,-1.9e-4 l -25.14309,25.14353 a 197.11458,197.11458 0 0 1 1.12443,1.11965 z"
           transform="rotate(-165,221.4706,222.04737)"
           id="path768" /></g><g
         id="g777"><path
           style="baseline-shift:baseline;display:inline;overflow:visible;opacity:1;vector-effect:none;fill:#6e6e6e;fill-opacity:1;stroke-linecap:round;stroke-linejoin:round;stroke-miterlimit:2;paint-order:stroke markers fill;enable-background:accumulate;stop-color:#000000;stop-opacity:1"
           d="m 79.921229,358.69402 -25.139767,25.13996 a 0.79374999,0.79374999 28.154966 0 0 -2.87e-4,1.12303 0.79374999,0.79374999 28.154966 0 0 1.121398,1.9e-4 l 25.143091,-25.14353 a 197.11458,197.11458 0 0 1 -1.124435,-1.11965 z"
           transform="rotate(-165,221.4706,222.04737)"
           id="path769" /><path
           style="baseline-shift:baseline;display:inline;overflow:visible;opacity:1;vector-effect:none;fill:#6e6e6e;fill-opacity:1;stroke-linecap:round;stroke-linejoin:round;stroke-miterlimit:2;paint-order:stroke markers fill;enable-background:accumulate;stop-color:#000000;stop-opacity:1"
           d="m 120.68953,390.09355 -53.496534,92.65797 a 0.79374999,0.79374999 45 0 0 0.290767,1.08516 0.79374999,0.79374999 45 0 0 1.084666,-0.29063 l 53.497591,-92.66201 a 197.11458,197.11458 0 0 1 -1.37649,-0.79049 z"
           transform="rotate(-165,221.4706,222.04737)"
           id="path770" /><path
           style="baseline-shift:baseline;display:inline;overflow:visible;opacity:1;vector-effect:none;fill:#6e6e6e;fill-opacity:1;stroke-linecap:round;stroke-linejoin:round;stroke-miterlimit:2;paint-order:stroke markers fill;enable-background:accumulate;stop-color:#000000;stop-opacity:1"
           d="m 168.19273,409.87025 -8.23644,30.73924 a 0.79374999,0.79374999 0 0 0 0.56189,0.97292 0.79374999,0.79374999 0 0 0 0.97057,-0.56073 l 8.23773,-30.74439 a 197.11458,197.11458 0 0 1 -1.53325,-0.40718 197.11458,197.11458 0 0 1 -5e-4,1.4e-4 z"
           transform="rotate(-165,221.4706,222.04737)"
           id="path771" /><path
           style="baseline-shift:baseline;display:inline;overflow:visible;opacity:1;vector-effect:none;fill:#6e6e6e;fill-opacity:1;stroke-linecap:round;stroke-linejoin:round;stroke-miterlimit:2;paint-order:stroke markers fill;enable-background:accumulate;stop-color:#000000;stop-opacity:1"
           d="m 219.19471,416.67853 v 25.79043 a 0.79374999,0.79374999 0 0 0 0.79291,0.7928 0.79374999,0.79374999 0 0 0 0.79416,-0.79379 l -1.9e-4,-25.79308 a 197.11458,197.11458 0 0 1 -1.58688,0.004 z"
           transform="rotate(-165,221.4706,222.04737)"
           id="path772" /><path
           style="baseline-shift:baseline;display:inline;overflow:visible;opacity:1;vector-effect:none;fill:#6e6e6e;fill-opacity:1;stroke-linecap:round;stroke-linejoin:round;stroke-miterlimit:2;paint-order:stroke markers fill;enable-background:accumulate;stop-color:#000000;stop-opacity:1"
           d="m 270.21687,410.05304 a 197.11458,197.11458 0 0 0 1.18444,-0.31362 197.11458,197.11458 0 0 0 0.35028,-0.0944 l 3.80086,14.18501 a 0.79374999,0.79374999 0 0 1 -0.56113,0.97264 0.79374999,0.79374999 0 0 1 -0.97278,-0.56163 z"
           transform="rotate(-165,221.4706,222.04737)"
           id="path773" /><path
           style="baseline-shift:baseline;display:inline;overflow:visible;opacity:1;vector-effect:none;fill:#6e6e6e;fill-opacity:1;stroke-linecap:round;stroke-linejoin:round;stroke-miterlimit:2;paint-order:stroke markers fill;enable-background:accumulate;stop-color:#000000;stop-opacity:1"
           d="m 319.25152,389.86838 12.89521,22.33518 a 0.79374999,0.79374999 45 0 1 -0.29027,1.08304 0.79374999,0.79374999 45 0 1 -1.08466,-0.29037 l -12.89638,-22.33755 a 197.11458,197.11458 0 0 0 1.3761,-0.7903 z"
           transform="rotate(-165,221.4706,222.04737)"
           id="path774" /><path
           style="baseline-shift:baseline;display:inline;overflow:visible;opacity:1;vector-effect:none;fill:#6e6e6e;fill-opacity:1;stroke-linecap:round;stroke-linejoin:round;stroke-miterlimit:2;paint-order:stroke markers fill;enable-background:accumulate;stop-color:#000000;stop-opacity:1"
           d="m 360.01639,358.47126 22.50258,22.50274 a 0.79374999,0.79374999 0 0 1 -1.5e-4,1.12352 0.79374999,0.79374999 0 0 1 -1.1209,-3.2e-4 l -22.50628,-22.50656 a 197.11458,197.11458 0 0 0 1.12425,-1.11925 197.11458,197.11458 0 0 0 5e-4,-1.3e-4 z"
           transform="rotate(-165,221.4706,222.04737)"
           id="path775" /><path
           style="baseline-shift:baseline;display:inline;overflow:visible;opacity:1;vector-effect:none;fill:#6e6e6e;fill-opacity:1;stroke-linecap:round;stroke-linejoin:round;stroke-miterlimit:2;paint-order:stroke markers fill;enable-background:accumulate;stop-color:#000000;stop-opacity:1"
           d="m 391.26702,317.59253 92.65834,53.49589 a 0.79374999,0.79374999 45 0 1 0.29077,1.08516 0.79374999,0.79374999 45 0 1 -1.08467,0.29064 l -92.66127,-53.49886 a 197.11458,197.11458 0 0 0 0.79683,-1.37283 z"
           transform="rotate(-165,221.4706,222.04737)"
           id="path776" /><path
           style="baseline-shift:baseline;display:inline;overflow:visible;opacity:1;vector-effect:none;fill:#6e6e6e;fill-opacity:1;stroke-linecap:round;stroke-linejoin:round;stroke-miterlimit:2;paint-order:stroke markers fill;enable-background:accumulate;stop-color:#000000;stop-opacity:1"
           d="m 410.87364,270.01559 34.34165,9.20196 a 0.79374999,0.79374999 0 0 1 0.56177,0.97243 0.79374999,0.79374999 0 0 1 -0.97107,0.56086 l -34.34632,-9.20339 a 197.11458,197.11458 0 0 0 0.41397,-1.53186 z"
           transform="rotate(-165,221.4706,222.04737)"
           id="path777" /></g></g></g></svg>
