<?xml version="1.0" encoding="UTF-8" standalone="no"?>
<!-- Created with Inkscape (http://www.inkscape.org/) -->

<svg
   width="67.5"
   height="45"
   viewBox="0 0 17.859375 11.90625"
   version="1.1"
   id="svg1"
   xmlns="http://www.w3.org/2000/svg"
   xmlns:svg="http://www.w3.org/2000/svg">
  <defs
     id="defs1" />
  <g
     id="g6"
     style="display:none"
     transform="translate(2.976562)">
    <path
       id="path4"
       style="display:inline;opacity:1;fill:#bfbfbf;fill-opacity:1;stroke:none;stroke-width:1.587;stroke-linecap:round;stroke-dasharray:0, 10.1568;stroke-dashoffset:0"
       d="m 4.2094951,-4.2094951 v 8.4189902 h 8.4189899 v -8.4189902 z m 0.9361741,0.9361742 H 11.692311 V 3.2733209 H 5.1456692 Z m 1.4959786,1.4959785 v 3.5546848 h 3.5546842 v -3.5546848 z"
       transform="rotate(45)" />
    <path
       style="display:inline;opacity:1;fill:#bfbfbf;fill-opacity:1;stroke:none;stroke-width:1.587;stroke-linecap:round;stroke-dasharray:0, 10.1568;stroke-dashoffset:0"
       d="M 8.9296875,0 V 1.3239502 L 13.558862,5.953125 8.9296875,10.5823 v 1.32395 L 14.882812,5.953125 Z"
       id="path5" />
    <path
       id="path6"
       d="M 8.9296875,0 V 1.3239502 L 13.558862,5.953125 8.9296875,10.5823 v 1.32395 L 14.882812,5.953125 Z"
       style="display:inline;opacity:1;fill:#bfbfbf;fill-opacity:1;stroke:none;stroke-width:1.587;stroke-linecap:round;stroke-dasharray:0, 10.1568;stroke-dashoffset:0"
       transform="matrix(-1,0,0,1,11.90625,0)" />
  </g>
  <g
     id="layer1"
     style="display:inline"
     transform="translate(2.976562)">
    <path
       id="rect1"
       style="display:inline;opacity:1;fill:#ffffff;fill-opacity:1;stroke:none;stroke-width:1.587;stroke-linecap:round;stroke-dasharray:0, 10.1568;stroke-dashoffset:0"
       d="m 4.2094951,-4.2094951 v 8.4189902 h 8.4189899 v -8.4189902 z m 0.9361741,0.9361742 H 11.692311 V 3.2733209 H 5.1456692 Z m 1.4959786,1.4959785 v 3.5546848 h 3.5546842 v -3.5546848 z"
       transform="rotate(45)" />
    <path
       style="display:none;opacity:1;fill:#ffffff;fill-opacity:1;stroke:none;stroke-width:1.587;stroke-linecap:round;stroke-dasharray:0, 10.1568;stroke-dashoffset:0"
       d="M 8.9296875,0 V 1.3239502 L 13.558862,5.953125 8.9296875,10.5823 v 1.32395 L 14.882812,5.953125 Z"
       id="path2" />
    <path
       id="path3"
       d="M 8.9296875,0 V 1.3239502 L 13.558862,5.953125 8.9296875,10.5823 v 1.32395 L 14.882812,5.953125 Z"
       style="display:inline;opacity:1;fill:#ffffff;fill-opacity:1;stroke:none;stroke-width:1.587;stroke-linecap:round;stroke-dasharray:0, 10.1568;stroke-dashoffset:0"
       transform="matrix(-1,0,0,1,11.90625,0)" />
  </g>
</svg>
