<?xml version="1.0" encoding="UTF-8" standalone="no"?>
<!-- Created with Inkscape (http://www.inkscape.org/) -->

<svg
   width="1680"
   height="1680"
   viewBox="0 0 444.49995 444.49995"
   version="1.1"
   id="svg1"
   xml:space="preserve"
   xmlns="http://www.w3.org/2000/svg"
   xmlns:svg="http://www.w3.org/2000/svg"><defs
     id="defs1" /><g
     id="g608"
     style="display:inline"><g
       id="g639"
       style="display:inline"><g
         id="g637"><path
           style="baseline-shift:baseline;display:inline;overflow:visible;opacity:1;vector-effect:none;fill:#ffffff;fill-opacity:1;stroke-linecap:round;stroke-linejoin:round;stroke-miterlimit:2;paint-order:stroke markers fill;enable-background:accumulate;stop-color:#000000;stop-opacity:1"
           d="m 30.457038,174.09114 -34.3416573,-9.20196 a 0.79374999,0.79374999 0 0 1 -0.5617636,-0.97243 0.79374999,0.79374999 0 0 1 0.9710642,-0.56086 l 34.3463207,9.20339 a 197.11458,197.11458 0 0 0 -0.413964,1.53186 z"
           transform="rotate(-165,221.4706,222.04737)"
           id="path629" /><path
           style="baseline-shift:baseline;display:inline;overflow:visible;opacity:1;vector-effect:none;fill:#ffffff;fill-opacity:1;stroke-linecap:round;stroke-linejoin:round;stroke-miterlimit:2;paint-order:stroke markers fill;enable-background:accumulate;stop-color:#000000;stop-opacity:1"
           d="M 50.063656,126.51421 -42.594687,73.018314 a 0.79374999,0.79374999 45 0 1 -0.290767,-1.08516 0.79374999,0.79374999 45 0 1 1.084666,-0.290635 l 92.661275,53.498861 a 197.11458,197.11458 0 0 0 -0.796831,1.37283 z"
           transform="rotate(-165,221.4706,222.04737)"
           id="path630" /><path
           style="baseline-shift:baseline;display:inline;overflow:visible;opacity:1;vector-effect:none;fill:#ffffff;fill-opacity:1;stroke-linecap:round;stroke-linejoin:round;stroke-miterlimit:2;paint-order:stroke markers fill;enable-background:accumulate;stop-color:#000000;stop-opacity:1"
           d="M 81.314286,85.635477 58.811701,63.132737 a 0.79374999,0.79374999 0 0 1 1.53e-4,-1.12352 0.79374999,0.79374999 0 0 1 1.120899,3.2e-4 l 22.506284,22.50656 a 197.11458,197.11458 0 0 0 -1.124252,1.11925 197.11458,197.11458 0 0 0 -4.99e-4,1.3e-4 z"
           transform="rotate(-165,221.4706,222.04737)"
           id="path631" /><path
           style="baseline-shift:baseline;display:inline;overflow:visible;opacity:1;vector-effect:none;fill:#ffffff;fill-opacity:1;stroke-linecap:round;stroke-linejoin:round;stroke-miterlimit:2;paint-order:stroke markers fill;enable-background:accumulate;stop-color:#000000;stop-opacity:1"
           d="M 122.07915,54.238351 109.18394,31.903172 a 0.79374999,0.79374999 45 0 1 0.29027,-1.083036 0.79374999,0.79374999 45 0 1 1.08467,0.290366 l 12.89637,22.337551 a 197.11458,197.11458 0 0 0 -1.3761,0.790298 z"
           transform="rotate(-165,221.4706,222.04737)"
           id="path632" /><path
           style="baseline-shift:baseline;display:inline;overflow:visible;opacity:1;vector-effect:none;fill:#ffffff;fill-opacity:1;stroke-linecap:round;stroke-linejoin:round;stroke-miterlimit:2;paint-order:stroke markers fill;enable-background:accumulate;stop-color:#000000;stop-opacity:1"
           d="m 169.57839,34.465102 a 197.11458,197.11458 0 0 1 1.18257,-0.320609 197.11458,197.11458 0 0 1 0.35054,-0.09339 l -3.80086,-14.185014 a 0.79374999,0.79374999 0 0 0 -0.97228,-0.561767 0.79374999,0.79374999 0 0 0 -0.56163,0.972774 z"
           transform="rotate(-165,221.4706,222.04737)"
           id="path637" /><path
           style="baseline-shift:baseline;display:inline;overflow:visible;opacity:1;vector-effect:none;fill:#ffffff;fill-opacity:1;stroke-linecap:round;stroke-linejoin:round;stroke-miterlimit:2;paint-order:stroke markers fill;enable-background:accumulate;stop-color:#000000;stop-opacity:1"
           d="m 222.13597,27.428208 -10e-6,-25.7904378 a 0.79374999,0.79374999 0 0 0 -0.7929,-0.7927996 0.79374999,0.79374999 0 0 0 -0.79417,0.7937952 l 1.9e-4,25.7930752 a 197.11458,197.11458 0 0 1 1.58689,-0.0036 z"
           transform="rotate(-165,221.4706,222.04737)"
           id="path636" /><path
           style="baseline-shift:baseline;display:inline;overflow:visible;opacity:1;vector-effect:none;fill:#ffffff;fill-opacity:1;stroke-linecap:round;stroke-linejoin:round;stroke-miterlimit:2;paint-order:stroke markers fill;enable-background:accumulate;stop-color:#000000;stop-opacity:1"
           d="m 273.13794,34.236484 8.23644,-30.7392374 a 0.79374999,0.79374999 0 0 0 -0.56189,-0.9729204 0.79374999,0.79374999 0 0 0 -0.97057,0.5607267 l -8.23773,30.7443951 a 197.11458,197.11458 0 0 1 1.53325,0.407173 197.11458,197.11458 0 0 1 5e-4,-1.37e-4 z"
           transform="rotate(-165,221.4706,222.04737)"
           id="path635" /><path
           style="baseline-shift:baseline;display:inline;overflow:visible;opacity:1;vector-effect:none;fill:#ffffff;fill-opacity:1;stroke-linecap:round;stroke-linejoin:round;stroke-miterlimit:2;paint-order:stroke markers fill;enable-background:accumulate;stop-color:#000000;stop-opacity:1"
           d="m 320.64115,54.013188 53.49653,-92.657975 a 0.79374999,0.79374999 45 0 0 -0.29077,-1.085159 0.79374999,0.79374999 45 0 0 -1.08467,0.290635 l -53.49759,92.662006 a 197.11458,197.11458 0 0 1 1.3765,0.790493 z"
           transform="rotate(-165,221.4706,222.04737)"
           id="path634" /><path
           style="baseline-shift:baseline;display:inline;overflow:visible;opacity:1;vector-effect:none;fill:#ffffff;fill-opacity:1;stroke-linecap:round;stroke-linejoin:round;stroke-miterlimit:2;paint-order:stroke markers fill;enable-background:accumulate;stop-color:#000000;stop-opacity:1"
           d="m 361.40944,85.412714 25.13977,-25.13996 a 0.79374999,0.79374999 0 0 0 2.9e-4,-1.12303 0.79374999,0.79374999 0 0 0 -1.1214,-1.9e-4 l -25.14309,25.14353 a 197.11458,197.11458 0 0 1 1.12443,1.11965 z"
           transform="rotate(-165,221.4706,222.04737)"
           id="path633" /></g><g
         id="g638"><path
           style="baseline-shift:baseline;display:inline;overflow:visible;opacity:1;vector-effect:none;fill:#ffffff;fill-opacity:1;stroke-linecap:round;stroke-linejoin:round;stroke-miterlimit:2;paint-order:stroke markers fill;enable-background:accumulate;stop-color:#000000;stop-opacity:1"
           d="m 79.921229,358.69402 -25.139767,25.13996 a 0.79374999,0.79374999 28.154966 0 0 -2.87e-4,1.12303 0.79374999,0.79374999 28.154966 0 0 1.121398,1.9e-4 l 25.143091,-25.14353 a 197.11458,197.11458 0 0 1 -1.124435,-1.11965 z"
           transform="rotate(-165,221.4706,222.04737)"
           id="path607" /><path
           style="baseline-shift:baseline;display:inline;overflow:visible;opacity:1;vector-effect:none;fill:#ffffff;fill-opacity:1;stroke-linecap:round;stroke-linejoin:round;stroke-miterlimit:2;paint-order:stroke markers fill;enable-background:accumulate;stop-color:#000000;stop-opacity:1"
           d="m 120.68953,390.09355 -53.496534,92.65797 a 0.79374999,0.79374999 45 0 0 0.290767,1.08516 0.79374999,0.79374999 45 0 0 1.084666,-0.29063 l 53.497591,-92.66201 a 197.11458,197.11458 0 0 1 -1.37649,-0.79049 z"
           transform="rotate(-165,221.4706,222.04737)"
           id="path621" /><path
           style="baseline-shift:baseline;display:inline;overflow:visible;opacity:1;vector-effect:none;fill:#ffffff;fill-opacity:1;stroke-linecap:round;stroke-linejoin:round;stroke-miterlimit:2;paint-order:stroke markers fill;enable-background:accumulate;stop-color:#000000;stop-opacity:1"
           d="m 168.19273,409.87025 -8.23644,30.73924 a 0.79374999,0.79374999 0 0 0 0.56189,0.97292 0.79374999,0.79374999 0 0 0 0.97057,-0.56073 l 8.23773,-30.74439 a 197.11458,197.11458 0 0 1 -1.53325,-0.40718 197.11458,197.11458 0 0 1 -5e-4,1.4e-4 z"
           transform="rotate(-165,221.4706,222.04737)"
           id="path622" /><path
           style="baseline-shift:baseline;display:inline;overflow:visible;opacity:1;vector-effect:none;fill:#ffffff;fill-opacity:1;stroke-linecap:round;stroke-linejoin:round;stroke-miterlimit:2;paint-order:stroke markers fill;enable-background:accumulate;stop-color:#000000;stop-opacity:1"
           d="m 219.19471,416.67853 v 25.79043 a 0.79374999,0.79374999 0 0 0 0.79291,0.7928 0.79374999,0.79374999 0 0 0 0.79416,-0.79379 l -1.9e-4,-25.79308 a 197.11458,197.11458 0 0 1 -1.58688,0.004 z"
           transform="rotate(-165,221.4706,222.04737)"
           id="path623" /><path
           style="baseline-shift:baseline;display:inline;overflow:visible;opacity:1;vector-effect:none;fill:#ffffff;fill-opacity:1;stroke-linecap:round;stroke-linejoin:round;stroke-miterlimit:2;paint-order:stroke markers fill;enable-background:accumulate;stop-color:#000000;stop-opacity:1"
           d="m 270.21687,410.05304 a 197.11458,197.11458 0 0 0 1.18444,-0.31362 197.11458,197.11458 0 0 0 0.35028,-0.0944 l 3.80086,14.18501 a 0.79374999,0.79374999 0 0 1 -0.56113,0.97264 0.79374999,0.79374999 0 0 1 -0.97278,-0.56163 z"
           transform="rotate(-165,221.4706,222.04737)"
           id="path628" /><path
           style="baseline-shift:baseline;display:inline;overflow:visible;opacity:1;vector-effect:none;fill:#ffffff;fill-opacity:1;stroke-linecap:round;stroke-linejoin:round;stroke-miterlimit:2;paint-order:stroke markers fill;enable-background:accumulate;stop-color:#000000;stop-opacity:1"
           d="m 319.25152,389.86838 12.89521,22.33518 a 0.79374999,0.79374999 45 0 1 -0.29027,1.08304 0.79374999,0.79374999 45 0 1 -1.08466,-0.29037 l -12.89638,-22.33755 a 197.11458,197.11458 0 0 0 1.3761,-0.7903 z"
           transform="rotate(-165,221.4706,222.04737)"
           id="path627" /><path
           style="baseline-shift:baseline;display:inline;overflow:visible;opacity:1;vector-effect:none;fill:#ffffff;fill-opacity:1;stroke-linecap:round;stroke-linejoin:round;stroke-miterlimit:2;paint-order:stroke markers fill;enable-background:accumulate;stop-color:#000000;stop-opacity:1"
           d="m 360.01639,358.47126 22.50258,22.50274 a 0.79374999,0.79374999 0 0 1 -1.5e-4,1.12352 0.79374999,0.79374999 0 0 1 -1.1209,-3.2e-4 l -22.50628,-22.50656 a 197.11458,197.11458 0 0 0 1.12425,-1.11925 197.11458,197.11458 0 0 0 5e-4,-1.3e-4 z"
           transform="rotate(-165,221.4706,222.04737)"
           id="path626" /><path
           style="baseline-shift:baseline;display:inline;overflow:visible;opacity:1;vector-effect:none;fill:#ffffff;fill-opacity:1;stroke-linecap:round;stroke-linejoin:round;stroke-miterlimit:2;paint-order:stroke markers fill;enable-background:accumulate;stop-color:#000000;stop-opacity:1"
           d="m 391.26702,317.59253 92.65834,53.49589 a 0.79374999,0.79374999 45 0 1 0.29077,1.08516 0.79374999,0.79374999 45 0 1 -1.08467,0.29064 l -92.66127,-53.49886 a 197.11458,197.11458 0 0 0 0.79683,-1.37283 z"
           transform="rotate(-165,221.4706,222.04737)"
           id="path625" /><path
           style="baseline-shift:baseline;display:inline;overflow:visible;opacity:1;vector-effect:none;fill:#ffffff;fill-opacity:1;stroke-linecap:round;stroke-linejoin:round;stroke-miterlimit:2;paint-order:stroke markers fill;enable-background:accumulate;stop-color:#000000;stop-opacity:1"
           d="m 410.87364,270.01559 34.34165,9.20196 a 0.79374999,0.79374999 0 0 1 0.56177,0.97243 0.79374999,0.79374999 0 0 1 -0.97107,0.56086 l -34.34632,-9.20339 a 197.11458,197.11458 0 0 0 0.41397,-1.53186 z"
           transform="rotate(-165,221.4706,222.04737)"
           id="path624" /></g></g></g></svg>
