<?xml version="1.0" encoding="UTF-8" standalone="no"?>
<!-- Created with Inkscape (http://www.inkscape.org/) -->

<svg
   version="1.1"
   id="svg1"
   width="737.71063"
   height="1342.436"
   viewBox="0 0 737.71063 1342.4361"
   xmlns:xlink="http://www.w3.org/1999/xlink"
   xmlns="http://www.w3.org/2000/svg"
   xmlns:svg="http://www.w3.org/2000/svg">
  <defs
     id="defs1">
    <linearGradient
       id="linearGradient44211">
      <stop
         style="stop-color:#101010;stop-opacity:0.10210212;"
         offset="0.33838382"
         id="stop44211" />
      <stop
         style="stop-color:#121212;stop-opacity:0.50196081;"
         offset="1"
         id="stop44212" />
    </linearGradient>
    <linearGradient
       id="linearGradient3">
      <stop
         style="stop-color:#141414;stop-opacity:0;"
         offset="0.7620042"
         id="stop44208" />
      <stop
         style="stop-color:#141414;stop-opacity:1;"
         offset="1"
         id="stop44209" />
    </linearGradient>
    <radialGradient
       xlink:href="#linearGradient3"
       id="radialGradient44222"
       gradientUnits="userSpaceOnUse"
       cx="368"
       cy="662.29651"
       fx="368"
       fy="662.29651"
       r="235.39279" />
    <radialGradient
       xlink:href="#linearGradient44211"
       id="radialGradient2"
       gradientUnits="userSpaceOnUse"
       gradientTransform="matrix(1.0035258,0,0,0.30716691,-1.2957423,823.04489)"
       cx="367.5"
       cy="1187.941"
       fx="367.5"
       fy="1187.941"
       r="249.43465" />
  </defs>
  <g
     id="g44208"
     transform="matrix(1.1370714,0,0,1.137083,-49.01843,-79.063755)"
     style="display:inline;stroke-width:0.879448">
    <g
       id="g44200"
       style="display:inline;opacity:1"
       transform="translate(5.3590071e-6,2.0379982e-4)">
      <path
         style="baseline-shift:baseline;display:none;overflow:visible;vector-effect:none;fill:#2a2a2a;fill-opacity:1;enable-background:accumulate;stop-color:#000000;stop-opacity:1"
         d="M 67.893703,72.170425 H 667.10632 c 12.26887,0 22.14598,9.877108 22.14598,22.145981 V 1225.3441 c 0,12.2689 -9.87711,22.146 -22.14598,22.146 H 67.893703 c -12.268873,0 -22.14598,-9.8771 -22.14598,-22.146 V 94.316406 c 0,-12.268873 9.877107,-22.145981 22.14598,-22.145981 z"
         id="path44198" />
      <path
         id="path44199"
         style="baseline-shift:baseline;display:inline;overflow:visible;opacity:1;vector-effect:none;fill:#2a2a2a;fill-opacity:1;stroke-width:0.879448;enable-background:accumulate;stop-color:#000000;stop-opacity:1"
         d="m 67.893776,72.170419 c -12.268873,0 -22.146051,9.876951 -22.146051,22.145824 V 1225.3439 c 0,12.2689 9.877178,22.1458 22.146051,22.1458 H 667.1065 c 12.26887,0 22.14605,-9.8769 22.14605,-22.1458 V 94.316243 c 0,-12.268873 -9.87718,-22.145824 -22.14605,-22.145824 z M 367.99998,426.90383 A 235.39279,235.39279 0 0 1 603.39259,662.29575 235.39279,235.39279 0 0 1 367.99998,897.68939 235.39279,235.39279 0 0 1 132.60738,662.29575 235.39279,235.39279 0 0 1 367.99998,426.90383 Z" />
      <path
         id="path44200"
         style="display:inline;fill:none;fill-opacity:1;stroke:#bfbfbf;stroke-width:4;stroke-dasharray:none;stroke-opacity:1;paint-order:stroke markers fill"
         transform="matrix(0.87945225,0,0,0.87944328,44.868268,71.290771)"
         d="M 26.757113,0 H 706.95352 c 14.82344,0 26.75711,11.933672 26.75711,26.757113 V 1311.6789 c 0,14.8235 -11.93367,26.7571 -26.75711,26.7571 H 26.757113 C 11.933672,1338.436 0,1326.5024 0,1311.6789 V 26.757113 C 0,11.933672 11.933672,0 26.757113,0 Z" />
    </g>
    <path
       id="path44201"
       style="baseline-shift:baseline;display:inline;overflow:visible;opacity:1;vector-effect:none;fill:#737373;fill-opacity:1;stroke-width:0.879448;enable-background:accumulate;stop-color:#000000;stop-opacity:1"
       d="m 220.57651,232.36914 -7.53889,15.20819 14.097,6.98745 52.09552,152.73628 1.66615,-0.56683 -52.09552,-152.73456 6.9858,-14.0917 z m 293.84699,0 -15.21178,7.53711 6.98752,14.09342 -52.09552,152.73456 1.66615,0.56683 52.09552,-152.73628 14.097,-6.98745 z m -293.0517,2.35664 12.05983,5.97575 -5.97924,12.05799 -12.0564,-5.97575 z m 292.25641,0 5.97753,12.05799 -12.05812,5.97575 -5.97752,-12.05628 z m -291.04201,3.60365 -3.5848,7.23823 7.23659,3.5882 3.58823,-7.23823 z m 289.82589,0.002 -7.2383,3.58648 3.58823,7.23823 7.23659,-3.5882 z m -202.95422,67.37875 -1.73657,0.28342 14.67586,90.07938 1.73314,-0.28341 z m 116.08427,0 -14.67243,90.07939 1.73314,0.28341 14.67586,-90.07938 z m -58.92159,18.86337 v 67.62438 h 1.75891 v -67.62438 z m -250.80535,10.56878 -1.3896,1.08041 87.90056,113.03079 1.38789,-1.08041 z m 503.36961,0 -87.89885,113.03079 1.38789,1.08041 87.90056,-113.03079 z m -420.79214,10.15654 -1.54934,0.83307 42.42498,78.79434 1.54763,-0.83307 z m 338.21467,0 -42.42327,78.79434 1.54763,0.83307 42.42498,-78.79434 z m -444.413679,60.33977 -1.185199,1.29856 79.011568,72.26206 1.18692,-1.29683 z m 550.612689,0 -79.01329,72.26379 1.18692,1.29683 79.01157,-72.26206 z m -550.758692,73.7822 -0.951595,1.48063 51.880817,33.28658 0.94816,-1.4789 z m 550.904692,0 -51.87738,33.28831 0.94816,1.4789 51.88082,-33.28658 z m -551.153755,58.5139 -0.705967,1.61117 30.964622,13.58155 0.70597,-1.61116 z m 551.402815,0 -30.96462,13.58156 0.70597,1.61116 30.96462,-13.58155 z m -521.14416,228.59513 -30.964622,13.58328 0.705967,1.61117 30.964625,-13.58156 z m 490.88551,0 -0.70597,1.61289 30.96462,13.58156 0.70597,-1.61117 z m -469.96588,38.93941 -51.880817,33.28831 0.951595,1.48062 51.877382,-33.2883 z m 449.04625,0 -0.94816,1.48063 51.87738,33.2883 0.9516,-1.48062 z m -422.0031,34.99051 -79.011568,72.26207 1.185199,1.29855 79.013289,-72.26378 z m 394.95995,0 -1.18692,1.29684 79.01329,72.26378 1.1852,-1.29855 z m -362.65382,29.94573 -87.90056,113.03079 1.3896,1.08041 87.89885,-113.03079 z m 330.34769,0 -1.38789,1.08041 87.89885,113.03079 1.3896,-1.08041 z m -293.40554,24.32554 -42.42498,78.79606 1.54934,0.83306 42.42327,-78.79434 z m 256.46339,0 -1.54763,0.83478 42.42327,78.79434 1.54934,-0.83306 z m -216.50156,17.62494 -52.09552,152.738 -14.09529,6.9875 7.5389,15.2082 15.20834,-7.5389 -6.9858,-14.0917 52.09552,-152.73456 z m 176.53973,0 -1.66615,0.56854 52.09552,152.73456 -6.98752,14.0917 15.21006,7.5406 7.5389,-15.2099 -14.09529,-6.9875 z m -133.37271,11.23007 -14.67586,90.07943 1.73657,0.2834 14.67243,-90.08113 z m 90.20569,0 -1.73314,0.2817 14.67243,90.08113 1.73657,-0.2834 z m -45.9823,3.87505 v 67.62438 h 1.75891 v -67.62438 z m -139.16816,139.43648 5.97752,12.0597 -12.05811,5.9774 -5.97753,-12.0579 z m 280.09351,0 12.05984,5.9774 -5.97925,12.058 -12.05639,-5.9757 z m -281.30963,3.6053 -7.23659,3.5882 3.58824,7.2366 7.23658,-3.5882 z m 282.52747,0 -3.58823,7.2383 7.23658,3.5865 3.58824,-7.2366 z" />
    <g
       id="g44206"
       style="display:inline">
      <path
         style="display:inline;fill:none;fill-opacity:1;stroke:#737373;stroke-width:1.7589;stroke-opacity:1"
         d="m 616.93556,1207.8501 h 50.56445 V 132.78176 A 39.932484,39.932484 0 0 1 627.56837,92.850115 H 454.00001 A 87.005783,87.005783 0 0 1 366.99415,179.85598 87.005783,87.005783 0 0 1 279.98829,92.850115 H 106.41993 v 0 A 39.932484,39.932484 0 0 1 67.500006,131.77004 V 1207.8501 h 50.564454"
         id="path44202" />
      <g
         id="g44205"
         style="display:inline">
        <path
           style="display:inline;fill:#4c4c4c;fill-opacity:1;stroke:none;stroke-width:1.7589"
           d="m 118.06536,1149.0718 h 498.8693 v 77.7386 h -498.8693 z"
           id="path44203" />
        <path
           style="display:inline;fill:url(#radialGradient2);fill-opacity:1;stroke:none;stroke-width:1.7589"
           d="m 118.06536,1149.0718 h 498.8693 v 77.7386 h -498.8693 z"
           id="path44204" />
        <path
           style="display:inline;fill:none;fill-opacity:1;stroke:#737373;stroke-width:1.7589;stroke-opacity:1"
           d="m 118.06536,1149.0718 h 498.8693 v 77.7386 h -498.8693 z"
           id="path44205" />
      </g>
    </g>
    <g
       id="g44207"
       style="display:inline"
       transform="translate(-0.49999414,-2.4662479)">
      <circle
         style="display:inline;fill:url(#radialGradient44222);stroke:none;stroke-width:1.7589;stroke-dasharray:none;stroke-opacity:1"
         id="circle44206"
         cx="368"
         cy="662.29651"
         r="235.39279" />
      <circle
         style="display:inline;fill:none;stroke:#a6a6a6;stroke-width:1.7589;stroke-dasharray:none;stroke-opacity:1"
         id="circle44207"
         cx="368"
         cy="662.29651"
         r="235.39279" />
    </g>
    <path
       id="path44207"
       style="display:none;fill:#6e6e6e;fill-opacity:1;stroke:none;stroke-width:4.39724;stroke-linecap:round;stroke-linejoin:bevel;stroke-miterlimit:2;stroke-dasharray:none;stroke-opacity:1;paint-order:stroke markers fill"
       d="m 360.851,585.59881 v 67.58066 h -67.58055 l -0.002,13.30158 h 67.5823 v 67.57714 l 13.29827,0.004 v -67.58066 h 67.58029 l 0.002,-13.30158 h -67.58205 v -67.57714 z" />
  </g>
</svg>
