<?xml version="1.0" encoding="UTF-8" standalone="no"?>
<!-- Created with Inkscape (http://www.inkscape.org/) -->

<svg
   width="1680"
   height="1680"
   viewBox="0 0 444.49995 444.49995"
   version="1.1"
   id="svg1"
   xml:space="preserve"
   xmlns:xlink="http://www.w3.org/1999/xlink"
   xmlns="http://www.w3.org/2000/svg"
   xmlns:svg="http://www.w3.org/2000/svg"><defs
     id="defs1"><linearGradient
       id="linearGradient454-1"><stop
         style="stop-color:#404040;stop-opacity:0;"
         offset="0"
         id="stop452" /><stop
         style="stop-color:#404040;stop-opacity:0.30000001;"
         offset="0.99542332"
         id="stop453" /><stop
         style="stop-color:#404040;stop-opacity:0;"
         offset="1"
         id="stop454" /></linearGradient><radialGradient
       xlink:href="#linearGradient454-1"
       id="radialGradient779"
       gradientUnits="userSpaceOnUse"
       gradientTransform="matrix(0.80000002,0,0,0.80000002,43.973745,43.973745)"
       cx="219.86874"
       cy="219.86874"
       fx="219.86874"
       fy="219.86874"
       r="187.85417" /></defs><g
     id="g608"
     style="display:inline"><g
       id="g607"
       transform="translate(2.3812536,2.3812536)"
       style="display:inline"><g
         id="g621"
         style="display:inline"><path
           id="circle601"
           style="display:inline;fill:url(#radialGradient779);stroke-width:1.5875;stroke-linecap:round;stroke-dasharray:0, 12.7"
           d="M 370.15208,219.86874 A 150.28334,150.28334 0 0 1 219.86874,370.15208 150.28334,150.28334 0 0 1 69.585403,219.86874 150.28334,150.28334 0 0 1 219.86874,69.585403 150.28334,150.28334 0 0 1 370.15208,219.86874 Z" /><path
           id="path719"
           d="m 373.32508,222.24998 c 0,0.43728 -0.35448,0.79175 -0.79175,0.79175 -0.43728,0 -0.79176,-0.35447 -0.79176,-0.79175 0,-0.43727 0.35448,-0.79175 0.79176,-0.79175 0.43727,0 0.79175,0.35448 0.79175,0.79175 z m -1.29246,-19.71925 c 0.0571,0.43353 -0.24811,0.83124 -0.68164,0.88832 -0.43354,0.0571 -0.83126,-0.2481 -0.88833,-0.68163 -0.0571,-0.43353 0.2481,-0.83125 0.68164,-0.88832 0.43353,-0.0571 0.83125,0.2481 0.88833,0.68163 z m -3.85529,-19.38185 c 0.11317,0.42237 -0.13749,0.85651 -0.55986,0.96969 -0.42238,0.11317 -0.85653,-0.13748 -0.9697,-0.55985 -0.11318,-0.42237 0.13748,-0.85652 0.55986,-0.96969 0.42237,-0.11318 0.85652,0.13747 0.9697,0.55985 z m -6.35215,-18.71283 c 0.16734,0.40399 -0.0245,0.86714 -0.4285,1.03448 -0.40399,0.16734 -0.86714,-0.0245 -1.03448,-0.42849 -0.16734,-0.40399 0.0245,-0.86714 0.4285,-1.03448 0.40399,-0.16733 0.86714,0.0245 1.03448,0.42849 z m -8.74032,-17.72361 c 0.21864,0.37869 0.0889,0.86292 -0.28981,1.08156 -0.37869,0.21864 -0.86292,0.0889 -1.08155,-0.2898 -0.21864,-0.37869 -0.0889,-0.86292 0.2898,-1.08155 0.3787,-0.21864 0.86293,-0.0889 1.08156,0.28979 z M 342.10593,130.2813 c 0.26619,0.34691 0.20075,0.84393 -0.14616,1.11013 -0.34692,0.2662 -0.84394,0.20076 -1.11013,-0.14615 -0.2662,-0.34691 -0.20076,-0.84393 0.14615,-1.11013 0.34692,-0.26619 0.84394,-0.20076 1.11014,0.14615 z m -13.02971,-14.85753 c 0.3092,0.30919 0.30919,0.81051 -10e-6,1.11971 -0.3092,0.3092 -0.81051,0.3092 -1.11971,0 -0.30919,-0.30919 -0.30919,-0.81051 10e-6,-1.11971 0.3092,-0.3092 0.81051,-0.3092 1.11971,0 z m -14.85753,-13.02971 c 0.34691,0.26619 0.41234,0.76322 0.14614,1.11013 -0.26619,0.34692 -0.76322,0.41235 -1.11013,0.14616 -0.34691,-0.26619 -0.41234,-0.76322 -0.14614,-1.11013 0.26619,-0.34692 0.76322,-0.41235 1.11013,-0.14616 z M 297.78755,91.415122 c 0.37868,0.218636 0.50843,0.702866 0.28979,1.081558 -0.21864,0.378692 -0.70286,0.508444 -1.08155,0.289808 -0.37869,-0.218636 -0.50844,-0.702866 -0.2898,-1.081558 0.21864,-0.378692 0.70287,-0.508444 1.08156,-0.289808 z m -17.72361,-8.740318 c 0.40398,0.167337 0.59582,0.630489 0.42848,1.034479 -0.16733,0.403991 -0.63048,0.595837 -1.03447,0.4285 -0.40399,-0.167336 -0.59583,-0.630489 -0.42849,-1.034479 0.16734,-0.403991 0.63049,-0.595836 1.03448,-0.4285 z m -18.71283,-6.352148 c 0.42238,0.113174 0.67303,0.547324 0.55985,0.9697 -0.11317,0.422376 -0.54732,0.673034 -0.96969,0.55986 -0.42237,-0.113174 -0.67303,-0.547323 -0.55985,-0.9697 0.11317,-0.422376 0.54732,-0.673034 0.96969,-0.55986 z m -19.38185,-3.855291 c 0.43353,0.05708 0.73871,0.454794 0.68163,0.888329 -0.0571,0.433535 -0.45479,0.738716 -0.88832,0.681641 -0.43353,-0.05707 -0.73871,-0.454794 -0.68163,-0.888329 0.0571,-0.433535 0.45479,-0.738716 0.88832,-0.681641 z M 222.25,71.174896 c 0.43728,0 0.79175,0.354483 0.79175,0.791759 0,0.437276 -0.35447,0.791758 -0.79175,0.791758 -0.43727,0 -0.79175,-0.354482 -0.79175,-0.791758 0,-0.437276 0.35448,-0.791759 0.79175,-0.791759 z m -19.71925,1.292468 c 0.43353,-0.05707 0.83124,0.248106 0.88832,0.681641 0.0571,0.433535 -0.2481,0.831253 -0.68163,0.888329 -0.43353,0.05707 -0.83125,-0.248106 -0.88832,-0.681641 -0.0571,-0.433535 0.2481,-0.831254 0.68163,-0.888329 z m -19.38185,3.85529 c 0.42237,-0.113174 0.85651,0.137483 0.96969,0.55986 0.11317,0.422376 -0.13748,0.856526 -0.55985,0.9697 -0.42237,0.113174 -0.85652,-0.137484 -0.96969,-0.55986 -0.11318,-0.422377 0.13747,-0.856526 0.55985,-0.9697 z M 164.43607,82.6748 c 0.40399,-0.167336 0.86714,0.02451 1.03448,0.4285 0.16734,0.403991 -0.0245,0.867143 -0.42849,1.034479 -0.40399,0.167337 -0.86714,-0.02451 -1.03448,-0.428499 -0.16733,-0.403991 0.0245,-0.867143 0.42849,-1.03448 z m -17.72361,8.740317 c 0.37869,-0.218635 0.86292,-0.08888 1.08156,0.289808 0.21864,0.378693 0.0889,0.862923 -0.2898,1.081558 -0.37869,0.218636 -0.86292,0.08888 -1.08155,-0.289808 -0.21864,-0.378692 -0.0889,-0.862922 0.28979,-1.081558 z m -16.43114,10.978933 c 0.34691,-0.26619 0.84393,-0.20075 1.11013,0.14616 0.2662,0.34692 0.20076,0.84394 -0.14615,1.11013 -0.34691,0.2662 -0.84393,0.20076 -1.11013,-0.14615 -0.26619,-0.34692 -0.20076,-0.84394 0.14615,-1.11014 z m -14.85753,13.02971 c 0.30919,-0.3092 0.81051,-0.30919 1.11971,1e-5 0.3092,0.3092 0.3092,0.81051 0,1.11971 -0.30919,0.30919 -0.81051,0.30919 -1.11971,-1e-5 -0.3092,-0.3092 -0.3092,-0.81051 0,-1.11971 z m -13.02971,14.85753 c 0.26619,-0.34691 0.76322,-0.41234 1.11013,-0.14614 0.34692,0.26619 0.41235,0.76322 0.14616,1.11013 -0.26619,0.34691 -0.76322,0.41234 -1.11013,0.14614 -0.34692,-0.26619 -0.41235,-0.76322 -0.14616,-1.11013 z m -10.978938,16.43114 c 0.218636,-0.37868 0.702866,-0.50843 1.081558,-0.28979 0.378692,0.21864 0.508444,0.70286 0.289808,1.08155 -0.218636,0.37869 -0.702866,0.50844 -1.081558,0.2898 -0.378692,-0.21864 -0.508444,-0.70287 -0.289808,-1.08156 z m -8.740318,17.72361 c 0.167337,-0.40398 0.630489,-0.59582 1.034479,-0.42848 0.403991,0.16733 0.595837,0.63048 0.4285,1.03447 -0.167336,0.40399 -0.630489,0.59583 -1.034479,0.42849 -0.403991,-0.16734 -0.595836,-0.63049 -0.4285,-1.03448 z m -6.352148,18.71283 c 0.113174,-0.42238 0.547324,-0.67303 0.9697,-0.55985 0.422376,0.11317 0.673034,0.54732 0.55986,0.96969 -0.113174,0.42237 -0.547323,0.67303 -0.9697,0.55985 -0.422376,-0.11317 -0.673034,-0.54732 -0.55986,-0.96969 z m -3.855291,19.38185 c 0.05708,-0.43353 0.454794,-0.73871 0.888329,-0.68163 0.433535,0.0571 0.738716,0.45479 0.681641,0.88832 -0.05708,0.43353 -0.454794,0.73871 -0.888329,0.68163 -0.433535,-0.0571 -0.738716,-0.45479 -0.681641,-0.88832 z m -1.292469,19.71926 c 0,-0.43728 0.354483,-0.79175 0.791759,-0.79175 0.437276,0 0.791758,0.35447 0.791758,0.79175 0,0.43727 -0.354482,0.79175 -0.791758,0.79175 -0.437276,0 -0.791759,-0.35448 -0.791759,-0.79175 z m 1.292468,19.71925 c -0.05707,-0.43353 0.248106,-0.83124 0.681641,-0.88832 0.433535,-0.0571 0.831253,0.2481 0.888329,0.68163 0.05708,0.43353 -0.248106,0.83125 -0.681641,0.88832 -0.433535,0.0571 -0.831254,-0.2481 -0.888329,-0.68163 z m 3.85529,19.38185 c -0.113174,-0.42237 0.137483,-0.85651 0.55986,-0.96969 0.422376,-0.11317 0.856526,0.13748 0.9697,0.55985 0.113174,0.42237 -0.137484,0.85652 -0.55986,0.96969 -0.422377,0.11318 -0.856526,-0.13747 -0.9697,-0.55985 z m 6.352146,18.71283 c -0.167336,-0.40399 0.02451,-0.86714 0.4285,-1.03448 0.403991,-0.16734 0.867143,0.0245 1.034479,0.42849 0.167337,0.40399 -0.02451,0.86714 -0.428499,1.03448 -0.403991,0.16733 -0.867143,-0.0245 -1.03448,-0.42849 z m 8.740317,17.72361 c -0.218635,-0.37869 -0.08888,-0.86292 0.289808,-1.08156 0.378693,-0.21864 0.862923,-0.0889 1.081558,0.2898 0.218636,0.37869 0.08888,0.86292 -0.289808,1.08155 -0.378692,0.21864 -0.862922,0.0889 -1.081558,-0.28979 z m 10.978933,16.43114 c -0.26619,-0.34691 -0.20075,-0.84393 0.14616,-1.11013 0.34692,-0.2662 0.84394,-0.20076 1.11013,0.14615 0.2662,0.34691 0.20076,0.84393 -0.14615,1.11013 -0.34692,0.26619 -0.84394,0.20076 -1.11014,-0.14615 z m 13.02971,14.85753 c -0.3092,-0.30919 -0.30919,-0.81051 1e-5,-1.11971 0.3092,-0.3092 0.81051,-0.3092 1.11971,0 0.30919,0.30919 0.30919,0.81051 -10e-6,1.11971 -0.3092,0.3092 -0.81051,0.3092 -1.11971,0 z m 14.85753,13.02971 c -0.34691,-0.26619 -0.41234,-0.76322 -0.14614,-1.11013 0.26619,-0.34692 0.76322,-0.41235 1.11013,-0.14616 0.34691,0.26619 0.41234,0.76322 0.14614,1.11013 -0.26619,0.34692 -0.76322,0.41235 -1.11013,0.14616 z m 16.43114,10.97894 c -0.37868,-0.21864 -0.50843,-0.70287 -0.28979,-1.08156 0.21864,-0.37869 0.70286,-0.50844 1.08155,-0.28981 0.37869,0.21864 0.50844,0.70287 0.2898,1.08156 -0.21864,0.37869 -0.70287,0.50844 -1.08156,0.28981 z m 17.72361,8.74032 c -0.40398,-0.16734 -0.59582,-0.63049 -0.42848,-1.03448 0.16733,-0.40399 0.63048,-0.59584 1.03447,-0.4285 0.40399,0.16733 0.59583,0.63049 0.42849,1.03448 -0.16734,0.40399 -0.63049,0.59583 -1.03448,0.4285 z m 18.71283,6.35214 c -0.42238,-0.11317 -0.67303,-0.54732 -0.55985,-0.9697 0.11317,-0.42237 0.54732,-0.67303 0.96969,-0.55986 0.42237,0.11318 0.67303,0.54733 0.55985,0.9697 -0.11317,0.42238 -0.54732,0.67304 -0.96969,0.55986 z m 19.38185,3.85529 c -0.43353,-0.0571 -0.73871,-0.45479 -0.68163,-0.88832 0.0571,-0.43354 0.45479,-0.73872 0.88832,-0.68165 0.43353,0.0571 0.73871,0.4548 0.68163,0.88833 -0.0571,0.43354 -0.45479,0.73872 -0.88832,0.68164 z m 19.71926,1.29247 c -0.43728,0 -0.79175,-0.35448 -0.79175,-0.79175 0,-0.43728 0.35447,-0.79176 0.79175,-0.79176 0.43727,0 0.79175,0.35448 0.79175,0.79176 0,0.43727 -0.35448,0.79175 -0.79175,0.79175 z m 19.71925,-1.29246 c -0.43353,0.0571 -0.83124,-0.24811 -0.88832,-0.68164 -0.0571,-0.43354 0.2481,-0.83126 0.68163,-0.88833 0.43353,-0.0571 0.83125,0.2481 0.88832,0.68164 0.0571,0.43353 -0.2481,0.83125 -0.68163,0.88833 z m 19.38185,-3.85529 c -0.42237,0.11317 -0.85651,-0.13749 -0.96969,-0.55986 -0.11317,-0.42238 0.13748,-0.85653 0.55985,-0.9697 0.42237,-0.11318 0.85652,0.13748 0.96969,0.55986 0.11318,0.42237 -0.13747,0.85652 -0.55985,0.9697 z m 18.71283,-6.35215 c -0.40399,0.16734 -0.86714,-0.0245 -1.03448,-0.4285 -0.16734,-0.40399 0.0245,-0.86714 0.42849,-1.03448 0.40399,-0.16734 0.86714,0.0245 1.03448,0.4285 0.16733,0.40399 -0.0245,0.86714 -0.42849,1.03448 z m 17.72361,-8.74032 c -0.37869,0.21864 -0.86292,0.0889 -1.08156,-0.28981 -0.21864,-0.37869 -0.0889,-0.86292 0.2898,-1.08155 0.37869,-0.21864 0.86292,-0.0889 1.08155,0.2898 0.21864,0.3787 0.0889,0.86293 -0.28979,1.08156 z m 16.43114,-10.97893 c -0.34691,0.26619 -0.84393,0.20075 -1.11013,-0.14616 -0.2662,-0.34692 -0.20076,-0.84394 0.14615,-1.11013 0.34691,-0.2662 0.84393,-0.20076 1.11013,0.14615 0.26619,0.34692 0.20076,0.84394 -0.14615,1.11014 z m 14.85753,-13.02971 c -0.30919,0.3092 -0.81051,0.30919 -1.11971,-10e-6 -0.3092,-0.3092 -0.3092,-0.81051 0,-1.11971 0.30919,-0.30919 0.81051,-0.30919 1.11971,10e-6 0.3092,0.3092 0.3092,0.81051 0,1.11971 z m 13.02971,-14.85753 c -0.26619,0.34691 -0.76322,0.41234 -1.11013,0.14614 -0.34692,-0.26619 -0.41235,-0.76322 -0.14616,-1.11013 0.26619,-0.34691 0.76322,-0.41234 1.11013,-0.14614 0.34692,0.26619 0.41235,0.76322 0.14616,1.11013 z m 10.97894,-16.43114 c -0.21864,0.37868 -0.70287,0.50843 -1.08156,0.28979 -0.37869,-0.21864 -0.50844,-0.70286 -0.28981,-1.08155 0.21864,-0.37869 0.70287,-0.50844 1.08156,-0.2898 0.37869,0.21864 0.50844,0.70287 0.28981,1.08156 z m 8.74032,-17.72361 c -0.16734,0.40398 -0.63049,0.59582 -1.03448,0.42848 -0.40399,-0.16733 -0.59584,-0.63048 -0.4285,-1.03447 0.16733,-0.40399 0.63049,-0.59583 1.03448,-0.42849 0.40399,0.16734 0.59583,0.63049 0.4285,1.03448 z m 6.35214,-18.71283 c -0.11317,0.42238 -0.54732,0.67303 -0.9697,0.55985 -0.42237,-0.11317 -0.67303,-0.54732 -0.55986,-0.96969 0.11318,-0.42237 0.54733,-0.67303 0.9697,-0.55985 0.42238,0.11317 0.67304,0.54732 0.55986,0.96969 z m 3.85529,-19.38185 c -0.0571,0.43353 -0.45479,0.73871 -0.88832,0.68163 -0.43354,-0.0571 -0.73872,-0.45479 -0.68165,-0.88832 0.0571,-0.43353 0.4548,-0.73871 0.88833,-0.68163 0.43354,0.0571 0.73872,0.45479 0.68164,0.88832 z"
           style="display:inline;opacity:1;fill:#ffffff;fill-opacity:1;fill-rule:nonzero;stroke:none;stroke-width:1.5875;stroke-linecap:round;stroke-linejoin:round;stroke-miterlimit:2;stroke-dasharray:none;stroke-dashoffset:0;stroke-opacity:1;paint-order:stroke markers fill"
           transform="translate(-2.3812536,-2.3812536)" /></g><g
         id="g744"
         style="display:inline"
         transform="translate(-2.3812536,-2.3812536)"><path
           style="opacity:1;fill:#ffffff;fill-opacity:1;fill-rule:nonzero;stroke:none;stroke-width:1.5875;stroke-linecap:round;stroke-linejoin:round;stroke-miterlimit:2;stroke-dasharray:none;stroke-dashoffset:0;stroke-opacity:1;paint-order:stroke markers fill"
           id="path727"
           d="m 375.70033,222.24998 c 0,1.74909 -1.41793,3.167 -3.16704,3.167 -1.7491,0 -3.16703,-1.41791 -3.16703,-3.167 0,-1.74908 1.41793,-3.167 3.16703,-3.167 1.74911,0 3.16704,1.41792 3.16704,3.167 z"
           transform="rotate(-90,222.25,222.25)" /><path
           style="display:inline;opacity:1;fill:#ffffff;fill-opacity:1;fill-rule:nonzero;stroke:none;stroke-width:1.5875;stroke-linecap:round;stroke-linejoin:round;stroke-miterlimit:2;stroke-dasharray:none;stroke-dashoffset:0;stroke-opacity:1;paint-order:stroke markers fill"
           id="path723"
           d="m 375.70033,222.24998 c 0,1.74909 -1.41793,3.167 -3.16704,3.167 -1.7491,0 -3.16703,-1.41791 -3.16703,-3.167 0,-1.74908 1.41793,-3.167 3.16703,-3.167 1.74911,0 3.16704,1.41792 3.16704,3.167 z"
           transform="rotate(-30,222.25,222.25)" /><path
           style="display:inline;opacity:1;fill:#ffffff;fill-opacity:1;fill-rule:nonzero;stroke:none;stroke-width:1.5875;stroke-linecap:round;stroke-linejoin:round;stroke-miterlimit:2;stroke-dasharray:none;stroke-dashoffset:0;stroke-opacity:1;paint-order:stroke markers fill"
           id="path743"
           d="m 375.70033,222.24998 c 0,1.74909 -1.41793,3.167 -3.16704,3.167 -1.7491,0 -3.16703,-1.41791 -3.16703,-3.167 0,-1.74908 1.41793,-3.167 3.16703,-3.167 1.74911,0 3.16704,1.41792 3.16704,3.167 z"
           transform="rotate(30,222.25,222.25)" /><path
           style="opacity:1;fill:#ffffff;fill-opacity:1;fill-rule:nonzero;stroke:none;stroke-width:1.5875;stroke-linecap:round;stroke-linejoin:round;stroke-miterlimit:2;stroke-dasharray:none;stroke-dashoffset:0;stroke-opacity:1;paint-order:stroke markers fill"
           id="path738"
           d="m 375.70033,222.24998 c 0,1.74909 -1.41793,3.167 -3.16704,3.167 -1.7491,0 -3.16703,-1.41791 -3.16703,-3.167 0,-1.74908 1.41793,-3.167 3.16703,-3.167 1.74911,0 3.16704,1.41792 3.16704,3.167 z"
           transform="rotate(105,222.25,222.25)" /><path
           style="display:inline;opacity:1;fill:#ffffff;fill-opacity:1;fill-rule:nonzero;stroke:none;stroke-width:1.5875;stroke-linecap:round;stroke-linejoin:round;stroke-miterlimit:2;stroke-dasharray:none;stroke-dashoffset:0;stroke-opacity:1;paint-order:stroke markers fill"
           id="path733"
           d="m 375.70033,222.24998 c 0,1.74909 -1.41793,3.167 -3.16704,3.167 -1.7491,0 -3.16703,-1.41791 -3.16703,-3.167 0,-1.74908 1.41793,-3.167 3.16703,-3.167 1.74911,0 3.16704,1.41792 3.16704,3.167 z"
           transform="rotate(180,222.25,222.25)" /></g></g></g></svg>
