<?xml version="1.0" encoding="UTF-8" standalone="no"?>
<!-- Created with Inkscape (http://www.inkscape.org/) -->

<svg
   width="1080"
   height="408"
   viewBox="0 0 285.75 107.95"
   version="1.1"
   id="svg1"
   xml:space="preserve"
   xmlns="http://www.w3.org/2000/svg"
   xmlns:svg="http://www.w3.org/2000/svg"><defs
     id="defs1" /><g
     id="layer1"><path
       style="font-size:67.4787px;font-family:'Saint Carell PERSONAL';-inkscape-font-specification:'Saint Carell PERSONAL';fill:#ffffff;stroke-width:1.05833;paint-order:stroke markers fill"
       d="m 1.2348175e-4,79.215519 v 1.079659 H 24.832285 v -1.079659 c -8.772231,0 -12.955911,-2.699148 -9.177103,-11.471379 l 1.349574,-3.10402 h 7.827529 c 3.373935,0.809745 6.073083,2.159318 7.287699,4.183679 0.674787,-1.889403 2.969063,-3.373934 6.882827,-4.183679 h 6.612913 l 2.699148,6.477955 c 2.294276,5.533253 2.834105,8.097444 -4.18368,8.097444 v 1.079659 h 55.804884 c 9.784414,0 18.691604,-0.202436 22.335454,-0.404872 1.95688,-0.134957 2.42923,0.404872 2.69914,1.484531 1.68697,0 2.49672,-1.079659 3.1715,-2.091839 -0.87722,-1.012181 -1.68697,-1.956883 -3.1715,-1.956883 -0.26991,1.07966 -0.9447,1.619489 -2.90158,1.754447 -2.2268,0.134957 -6.27552,0.134957 -11.26894,0.134957 3.03654,-0.742266 4.65603,-1.754446 5.46577,-2.969063 1.75445,-2.631669 0.26992,-6.477955 -5.19586,-7.287699 l -0.60731,0.607308 c 3.98125,2.159318 2.69915,9.379539 -12.753471,9.649454 H 69.368226 c -4.318637,0 -6.74787,-2.429233 -9.177103,-8.097444 L 45.075894,35.62428 C 43.186491,30.225984 42.241789,27.391878 47.91,27.391878 V 26.312219 H 23.617668 v 1.079659 c 5.803168,0 6.882827,2.834106 4.993424,8.232402 L 14.440565,67.74414 C 11.943853,73.412351 9.1772265,79.215519 1.2348175e-4,79.215519 Z M 17.544585,63.425504 29.825708,35.62428 c 0.674787,-1.484532 1.214617,-2.834106 1.754446,-3.778807 0.53983,0.944701 1.012181,2.294275 1.619489,3.778807 l 11.876251,27.801224 h -6.612912 c -3.373935,-0.809745 -5.668211,-2.159319 -6.342998,-4.18368 -1.079659,1.889404 -3.238977,3.373935 -6.612912,4.18368 z m 48.449709,2.834105 v 0.539829 H 93.72804 v -7.625092 h -0.53983 c 0,4.1162 -2.56419,7.085263 -7.827529,7.085263 h -6.342998 c -3.238977,0 -3.778807,-0.674787 -3.778807,-4.048722 v -8.907188 h 4.251158 c 5.263339,0 6.815349,1.821925 6.815349,5.938125 h 0.539829 V 46.758265 h -0.539829 c 0,4.048722 -1.55201,5.938125 -6.815349,5.938125 h -4.251158 v -8.232401 c 0,-3.441413 0.53983,-4.1162 3.778807,-4.1162 h 5.263339 c 5.263338,0 7.827529,3.036541 7.827529,7.152742 H 92.64838 V 39.807959 H 65.994294 v 0.53983 c 3.238978,0 3.778808,0.674787 3.778808,4.1162 v 17.746898 c 0,3.373935 -0.53983,4.048722 -3.778808,4.048722 z m 40.554746,0 v 0.539829 h 13.09087 v -0.539829 c -3.23898,0 -3.77881,-0.674787 -3.77881,-4.048722 V 44.463989 c 0,-3.441413 0.53983,-4.1162 3.77881,-4.1162 h 0.40487 c 5.26334,0 7.82753,4.318636 7.82753,9.85189 h 0.53983 V 39.807959 H 97.776807 v 10.39172 h 0.53983 c 0,-5.533254 2.564193,-9.85189 7.827533,-9.85189 h 0.40487 c 3.30645,0 3.77881,0.674787 3.77881,4.1162 v 17.746898 c 0,3.373935 -0.47236,4.048722 -3.77881,4.048722 z m 25.91181,0 v 0.539829 h 13.02339 v -0.539829 c -3.23898,0 -3.77881,-0.674787 -3.77881,-4.048722 v -9.177103 h 3.77881 c 1.75445,0.404872 3.10402,1.079659 3.77881,2.09184 0.33739,-0.944702 1.48453,-1.686968 3.44141,-2.09184 h 3.64385 v 9.177103 c 0,3.373935 -0.53983,4.048722 -3.77881,4.048722 v 0.539829 h 13.02339 v -0.539829 c -3.23898,0 -3.77881,-0.674787 -3.77881,-4.048722 V 44.463989 c 0,-3.441413 0.53983,-4.1162 3.77881,-4.1162 v -0.53983 H 152.5695 v 0.53983 c 3.23898,0 3.77881,0.674787 3.77881,4.1162 v 8.029965 h -3.57637 c -1.8894,-0.404872 -3.10402,-1.079659 -3.50889,-2.159318 -0.60731,1.01218 -1.75445,1.754446 -3.64385,2.159318 h -3.91377 v -8.029965 c 0,-3.441413 0.53983,-4.1162 3.77881,-4.1162 v -0.53983 h -13.02339 v 0.53983 c 3.23898,0 3.77881,0.674787 3.77881,4.1162 v 17.746898 c 0,3.373935 -0.53983,4.048722 -3.77881,4.048722 z m 37.1808,0 v 0.539829 h 27.73375 v -7.625092 h -0.53983 c 0,4.1162 -2.56419,7.085263 -7.82753,7.085263 h -6.343 c -3.23898,0 -3.77881,-0.674787 -3.77881,-4.048722 v -8.907188 h 4.25116 c 5.26334,0 6.81535,1.821925 6.81535,5.938125 h 0.53983 V 46.758265 h -0.53983 c 0,4.048722 -1.55201,5.938125 -6.81535,5.938125 h -4.25116 v -8.232401 c 0,-3.441413 0.53983,-4.1162 3.77881,-4.1162 h 5.26334 c 5.26334,0 7.82753,3.036541 7.82753,7.152742 h 0.53983 v -7.692572 h -26.65409 v 0.53983 c 3.23898,0 3.77881,0.674787 3.77881,4.1162 v 17.746898 c 0,3.373935 -0.53983,4.048722 -3.77881,4.048722 z m 31.78252,0 v 0.539829 h 13.02339 v -0.539829 c -3.23898,0 -3.77881,-0.674787 -3.77881,-4.048722 v -8.367359 h 3.84629 c 5.80316,0 9.04214,0.944702 9.04214,8.164923 0,6.815348 5.12838,9.784411 11.13399,4.790987 l -0.26992,-0.47235 c -2.22679,1.214616 -4.72351,-0.53983 -5.53325,-5.668211 -0.74227,-4.453594 -3.30646,-6.410476 -8.5698,-7.085263 4.99343,-0.53983 8.70476,-2.159319 8.70476,-6.815349 0,-6.275519 -6.81535,-6.950306 -14.50792,-6.950306 h -13.09087 v 0.53983 c 3.23898,0 3.77881,0.674787 3.77881,4.1162 v 17.746898 c 0,3.373935 -0.53983,4.048722 -3.77881,4.048722 z m 9.24458,-12.95591 v -8.83971 c 0,-3.441413 0.53983,-4.1162 3.77881,-4.1162 h 0.0675 c 5.80316,0 8.50231,1.214616 8.50231,6.410476 0,5.128381 -2.69915,6.545434 -8.50231,6.545434 z m 26.04683,12.95591 v 0.539829 h 13.02339 v -0.539829 c -3.23898,0 -3.77881,-0.674787 -3.77881,-4.048722 V 44.463989 c 0,-3.441413 0.53983,-4.1162 3.77881,-4.1162 v -0.53983 h -13.02339 v 0.53983 c 3.23898,0 3.77881,0.674787 3.77881,4.1162 v 17.746898 c 0,3.373935 -0.53983,4.048722 -3.77881,4.048722 z m 15.04777,0 v 0.539829 h 12.41608 v -0.539829 c -4.38612,0 -6.47796,-1.349574 -4.58855,-5.73569 l 0.67478,-1.55201 h 3.91377 c 1.68697,0.404873 3.03654,1.07966 3.64385,2.09184 0.33739,-0.944702 1.48453,-1.686967 3.44141,-2.09184 h 3.30646 l 1.34957,3.238978 c 1.14714,2.766627 1.41706,4.048722 -2.09184,4.048722 v 0.539829 h 12.61852 v -0.539829 c -2.15932,0 -3.37394,-1.214617 -4.58855,-4.048722 l -7.55762,-17.746898 c -0.9447,-2.699148 -1.41705,-4.1162 1.41706,-4.1162 v -0.53983 h -12.14617 v 0.53983 c 2.90158,0 3.44141,1.417052 2.49671,4.1162 l -7.08526,16.05993 c -1.21462,2.834106 -2.63167,5.73569 -7.22022,5.73569 z m 8.77223,-7.895008 6.14056,-13.900612 c 0.33739,-0.742265 0.60731,-1.417052 0.87722,-1.889403 0.26992,0.472351 0.47235,1.147138 0.80975,1.889403 l 5.93812,13.900612 h -3.30645 c -1.68697,-0.404872 -2.83411,-1.079659 -3.1715,-2.09184 -0.53983,0.944702 -1.61949,1.686968 -3.30646,2.09184 z"
       id="text5"
       transform="scale(0.99756497,1.002441)"
       aria-label="Aetheria" /><path
       id="path1"
       style="baseline-shift:baseline;display:inline;overflow:visible;opacity:1;vector-effect:none;fill:#ffffff;paint-order:stroke markers fill;enable-background:accumulate;stop-color:#000000;stop-opacity:1"
       d="m 267.16767,73.522644 -5.42447,5.424475 H 132.1387 v 1.056783 h 129.60398 l 5.42499,5.424992 5.95313,-5.953125 z m 0,1.32395 4.62918,4.629175 -4.62918,4.629175 -4.62866,-4.628658 v -0.001 z m 0,2.115633 -2.51354,2.513542 2.51354,2.513542 2.51354,-2.513542 z" /></g></svg>
